<svg id="Layer_1" enable-background="new 0 0 510 510" height="512" viewBox="0 0 510 510" width="512" xmlns="http://www.w3.org/2000/svg"><g><path d="m195 317.238c-24.813 0-45 20.186-45 45 0 24.813 20.187 45 45 45s45-20.187 45-45-20.187-45-45-45zm0 60c-8.271 0-15-6.729-15-15 0-8.272 6.729-15 15-15s15 6.728 15 15-6.729 15-15 15z"/><path d="m268.404 437.238c34.56-33.832 40.696-85.193 18.766-125.256l130.711-80.764 6.236 15.496 83.587-33.364-68.648-170.588-83.587 33.364 6.695 16.639-248.044 70.45c-9.286-21.489-25.102-31.452-38.028-36.053-16.719-5.951-31.625-4.006-33.27-3.765l4.355 29.682c.088-.012 9.121-1.117 18.855 2.347 9.295 3.308 15.985 9.605 20.261 19.072-49.248 28.143-68.673 87.647-48.163 138.511l-31.45 20.967 16.641 24.961 29.659-19.772c9.9 12.977 22.569 23.594 37.331 31.184 2.004 26.121 13.613 49.591 31.286 66.891h-121.597v30h510v-30h-241.596zm153.99-355.523 46.248 114.927-27.807 11.098c-.046-.114-46.253-114.779-46.304-114.904zm-354.212 154.092c10.087-20.832 27.85-35.945 50.024-42.564l255.181-72.479c.047.115 33.079 82.089 33.129 82.213l-137.439 84.919c-19.002-18.935-45.196-30.657-74.077-30.657-49.162 0-90.535 33.965-101.901 79.66-29.703-21.82-43.002-63.744-24.917-101.092zm51.818 126.431c0-41.355 33.645-75 75-75s75 33.645 75 75-33.645 75-75 75-75-33.644-75-75z"/></g></svg>