<svg width="105" height="105" viewBox="0 0 105 105" fill="none" xmlns="http://www.w3.org/2000/svg">
<g filter="url(#filter0_d)">
<path d="M52.5 92C75.9721 92 95 72.9721 95 49.5C95 26.0279 75.9721 7 52.5 7C29.0279 7 10 26.0279 10 49.5C10 72.9721 29.0279 92 52.5 92Z" fill="white"/>
</g>
<path d="M72.897 50.3301H66.4473C65.9888 50.3301 65.6172 49.9584 65.6172 49.5C65.6172 49.0416 65.9888 48.6699 66.4473 48.6699H72.897C73.3555 48.6699 73.7271 49.0416 73.7271 49.5C73.7271 49.9584 73.3555 50.3301 72.897 50.3301Z" fill="#9175A7"/>
<path d="M38.5525 50.3301H32.1028C31.6443 50.3301 31.2727 49.9584 31.2727 49.5C31.2727 49.0416 31.6443 48.6699 32.1028 48.6699H38.5525C39.011 48.6699 39.3826 49.0416 39.3826 49.5C39.3826 49.9584 39.011 50.3301 38.5525 50.3301Z" fill="#9175A7"/>
<path d="M52.5 68.5403C52.0415 68.5403 51.6699 68.1686 51.6699 67.7102V62.9207C51.6699 62.4623 52.0415 62.0906 52.5 62.0906C52.9585 62.0906 53.3301 62.4623 53.3301 62.9207V67.7102C53.3301 68.1687 52.9585 68.5403 52.5 68.5403Z" fill="#9175A7"/>
<path d="M52.5 36.9094C52.0415 36.9094 51.6699 36.5377 51.6699 36.0793V31.2898C51.6699 30.8314 52.0415 30.4597 52.5 30.4597C52.9585 30.4597 53.3301 30.8314 53.3301 31.2898V36.0793C53.3301 36.5377 52.9585 36.9094 52.5 36.9094Z" fill="#9175A7"/>
<path d="M88.9715 57.1128C88.9715 57.9244 88.3132 58.582 87.5016 58.582H77.0112C76.6058 58.582 76.2382 58.4173 75.9721 58.1518C75.706 57.8857 75.5413 57.519 75.5413 57.1128C75.5413 53.9184 77.7721 51.2448 80.7605 50.5651V49.4767C79.532 49.2068 78.6128 48.1121 78.6128 46.8025V44.0631C78.6128 43.057 79.0208 42.146 79.6796 41.4865C80.0128 41.154 80.4094 40.8852 80.8503 40.701C81.283 40.5197 81.7583 40.4196 82.2561 40.4196C82.3923 40.4196 82.5267 40.4272 82.6584 40.4418C84.4811 40.642 85.8997 42.1873 85.8997 44.0631V46.8025C85.8997 47.3188 85.7566 47.8023 85.5076 48.2142C85.1262 48.847 84.4957 49.3127 83.7519 49.4769V50.5653C85.2459 50.9048 86.551 51.7436 87.4823 52.8961C88.414 54.0483 88.9715 55.5155 88.9715 57.1128Z" fill="#EA792E"/>
<path d="M85.9 44.0623V46.8017C85.9 47.318 85.7569 47.8015 85.5079 48.2133H83.3133C81.9532 48.2133 80.8508 47.111 80.8508 45.7507V40.7C81.2835 40.5187 81.7588 40.4186 82.2566 40.4186C82.3928 40.4186 82.5272 40.4262 82.6589 40.4408C84.4816 40.641 85.9 42.1863 85.9 44.0623Z" fill="#F39E22"/>
<path d="M88.9715 57.1121C88.9715 57.9238 88.3132 58.5814 87.5016 58.5814H77.9698V56.3468C77.9698 53.6706 79.788 51.4196 82.2563 50.7602V49.4761H83.7521V50.5645C85.2461 50.904 86.5511 51.7429 87.4825 52.8953C88.414 54.0476 88.9715 55.5149 88.9715 57.1121Z" fill="#F39E22"/>
<path d="M85.9 44.0623V46.6479C83.7682 46.487 82.0886 44.7066 82.0886 42.5337C82.0886 41.7697 82.2965 41.0543 82.6589 40.441C84.4816 40.6411 85.9 42.1864 85.9 44.0623Z" fill="#F9C744"/>
<path d="M86.5347 56.4198C85.9337 56.8737 85.0786 56.7544 84.6247 56.1534L83.2752 54.3661C82.8213 53.7651 82.9407 52.9099 83.5416 52.456C84.1426 52.0022 84.9977 52.1215 85.4516 52.7225L86.8012 54.5097C87.2552 55.1108 87.1359 55.966 86.5347 56.4198Z" fill="#F9C744"/>
<path d="M29.4584 57.1128C29.4584 57.9244 28.8001 58.582 27.9885 58.582H17.4983C17.0929 58.582 16.7253 58.4173 16.4592 58.1518C16.1931 57.8857 16.0284 57.519 16.0284 57.1128C16.0284 53.9184 18.2591 51.2448 21.2476 50.5651V49.4767C20.0191 49.2068 19.0998 48.1121 19.0998 46.8025V44.0631C19.0998 43.057 19.5079 42.146 20.1668 41.4865C20.5 41.154 20.8966 40.8852 21.3376 40.701C21.7702 40.5197 22.2455 40.4196 22.7434 40.4196C22.8795 40.4196 23.014 40.4272 23.1456 40.4418C24.9683 40.642 26.3869 42.1873 26.3869 44.0631V46.8025C26.3869 47.3188 26.2438 47.8023 25.9948 48.2142C25.6135 48.847 24.9829 49.3127 24.2392 49.4769V50.5653C25.7332 50.9048 27.0382 51.7436 27.9696 52.8961C28.9009 54.0483 29.4584 55.5155 29.4584 57.1128Z" fill="#EA792E"/>
<path d="M26.3871 44.0623V46.8017C26.3871 47.318 26.244 47.8015 25.9949 48.2133H23.8002C22.4401 48.2133 21.3375 47.111 21.3375 45.7507V40.7C21.7702 40.5187 22.2455 40.4186 22.7434 40.4186C22.8795 40.4186 23.014 40.4262 23.1456 40.4408C24.9685 40.641 26.3871 42.1863 26.3871 44.0623Z" fill="#F39E22"/>
<path d="M29.4584 57.1121C29.4584 57.9238 28.8001 58.5814 27.9885 58.5814H18.4568V56.3468C18.4568 53.6706 20.275 51.4196 22.7434 50.7602V49.4761H24.2392V50.5645C25.7331 50.904 27.0382 51.7429 27.9695 52.8953C28.9009 54.0476 29.4584 55.5149 29.4584 57.1121Z" fill="#F39E22"/>
<path d="M26.3871 44.0623V46.6479C24.2553 46.487 22.5757 44.7066 22.5757 42.5337C22.5757 41.7697 22.7835 41.0543 23.146 40.441C24.9685 40.6411 26.3871 42.1864 26.3871 44.0623Z" fill="#F9C744"/>
<path d="M27.0218 56.4198C26.4208 56.8737 25.5656 56.7544 25.1117 56.1534L23.7622 54.3661C23.3083 53.7651 23.4277 52.9099 24.0287 52.456C24.6296 52.0022 25.4848 52.1215 25.9387 52.7225L27.2882 54.5097C27.7421 55.1108 27.6227 55.966 27.0218 56.4198Z" fill="#F9C744"/>
<path d="M59.215 27.3632C59.215 28.1748 58.5568 28.8324 57.7451 28.8324H47.2547C46.8493 28.8324 46.4818 28.6677 46.2157 28.4023C45.9495 28.1361 45.7848 27.7694 45.7848 27.3632C45.7848 24.1689 48.0156 21.4952 51.004 20.8155V19.7271C49.7755 19.4572 48.8563 18.3625 48.8563 17.0529V14.3133C48.8563 13.3073 49.2644 12.3962 49.9231 11.7368C50.2563 11.4041 50.6529 11.1355 51.0939 10.9512C51.5265 10.7699 52.0018 10.6698 52.4997 10.6698C52.6358 10.6698 52.7703 10.6774 52.9019 10.692C54.7246 10.8923 56.1432 12.4375 56.1432 14.3133V17.0528C56.1432 17.5691 56.0001 18.0525 55.7511 18.4644C55.3698 19.0973 54.7392 19.5629 53.9955 19.7271V20.8155C55.4895 21.155 56.7945 21.9939 57.7258 23.1464C58.6575 24.2987 59.215 25.7661 59.215 27.3632Z" fill="#EA792E"/>
<path d="M56.1436 14.3133V17.0528C56.1436 17.5691 56.0005 18.0525 55.7514 18.4644H53.5569C52.1967 18.4644 51.0942 17.3621 51.0942 16.0017V10.9512C51.5268 10.7699 52.0021 10.6698 52.5 10.6698C52.6361 10.6698 52.7706 10.6774 52.9023 10.692C54.725 10.8923 56.1436 12.4374 56.1436 14.3133Z" fill="#F39E22"/>
<path d="M59.215 27.3631C59.215 28.1748 58.5568 28.8323 57.7451 28.8323H48.2135V26.5978C48.2135 23.9216 50.0317 21.6706 52.5 21.0112V19.7271H53.9958V20.8154C55.4898 21.155 56.7948 21.9938 57.7262 23.1463C58.6575 24.2986 59.215 25.766 59.215 27.3631Z" fill="#F39E22"/>
<path d="M56.1436 14.3133V16.8988C54.0117 16.738 52.3322 14.9576 52.3322 12.7846C52.3322 12.0206 52.54 11.3053 52.9024 10.692C54.725 10.8922 56.1436 12.4373 56.1436 14.3133Z" fill="#F9C744"/>
<path d="M56.7782 26.6708C56.1773 27.1247 55.3221 27.0053 54.8682 26.4044L53.5187 24.617C53.0648 24.0161 53.1842 23.1609 53.7851 22.707C54.3861 22.2531 55.2413 22.3725 55.6952 22.9735L57.0447 24.7606C57.4986 25.3619 57.3792 26.2171 56.7782 26.6708Z" fill="#F9C744"/>
<path d="M59.215 86.8617C59.215 87.6733 58.5567 88.3309 57.7451 88.3309H47.2547C46.8493 88.3309 46.4818 88.1662 46.2156 87.9007C45.9495 87.6346 45.7848 87.2679 45.7848 86.8617C45.7848 83.6674 48.0156 80.9937 51.004 80.314V79.2256C49.7755 78.9557 48.8563 77.861 48.8563 76.5514V73.812C48.8563 72.8059 49.2643 71.8949 49.9231 71.2354C50.2563 70.9027 50.6529 70.6341 51.0938 70.4498C51.5265 70.2686 52.0018 70.1685 52.4997 70.1685C52.6358 70.1685 52.7703 70.1761 52.9019 70.1907C54.7246 70.3909 56.1432 71.9362 56.1432 73.812V76.5514C56.1432 77.0677 56.0001 77.5512 55.7511 77.9631C55.3697 78.5959 54.7392 79.0616 53.9955 79.2258V80.3142C55.4894 80.6537 56.7945 81.4925 57.7258 82.645C58.6575 83.7972 59.215 85.2646 59.215 86.8617Z" fill="#EA792E"/>
<path d="M56.1436 73.8112V76.5506C56.1436 77.0669 56.0005 77.5504 55.7514 77.9622H53.5569C52.1967 77.9622 51.0942 76.8599 51.0942 75.4996V70.4489C51.5268 70.2676 52.0021 70.1675 52.5 70.1675C52.6361 70.1675 52.7706 70.1751 52.9023 70.1897C54.725 70.3901 56.1436 71.9352 56.1436 73.8112Z" fill="#F39E22"/>
<path d="M59.215 86.861C59.215 87.6727 58.5568 88.3303 57.7451 88.3303H48.2135V86.0957C48.2135 83.4195 50.0317 81.1685 52.5 80.5091V79.225H53.9958V80.3134C55.4898 80.6529 56.7948 81.4917 57.7262 82.6442C58.6575 83.7965 59.215 85.264 59.215 86.861Z" fill="#F39E22"/>
<path d="M56.1436 73.8111V76.3966C54.0117 76.2358 52.3322 74.4554 52.3322 72.2824C52.3322 71.5184 52.54 70.8031 52.9024 70.1898C54.725 70.39 56.1436 71.9351 56.1436 73.8111Z" fill="#F9C744"/>
<path d="M56.7782 86.1687C56.1773 86.6226 55.3221 86.5033 54.8682 85.9023L53.5187 84.115C53.0648 83.514 53.1842 82.6588 53.7851 82.2049C54.3861 81.7511 55.2413 81.8704 55.6952 82.4714L57.0447 84.2586C57.4986 84.8599 57.3792 85.715 56.7782 86.1687Z" fill="#F9C744"/>
<path d="M55.3196 36.0791H49.0641C45.4576 36.0791 42.2749 37.8953 40.3824 40.6633C39.2287 42.3503 38.5535 44.391 38.5535 46.5887V52.4109C38.5535 58.2151 43.2589 62.9205 49.0641 62.9205H55.3196V36.0791Z" fill="#F39E22"/>
<path d="M38.5525 48.0701H49.6346V50.9297H38.5525V48.0701Z" fill="#EA792E"/>
<path d="M38.5525 48.0701H49.6346V49.1925H38.5525V48.0701Z" fill="#DD5E26"/>
<path d="M49.6346 52.7255V55.5841H39.0409C38.8626 55.0243 38.7318 54.4439 38.651 53.8469C38.5998 53.4792 38.5683 53.1052 38.5582 52.7253H49.6346V52.7255Z" fill="#EA792E"/>
<path d="M49.6346 52.7263V53.8479H38.651C38.5998 53.4802 38.5683 53.1062 38.5582 52.7263H49.6346Z" fill="#DD5E26"/>
<path d="M52.328 57.3798V60.2394H42.051C41.4707 59.7204 40.949 59.1374 40.4967 58.5014C40.2414 58.1439 40.0083 57.7687 39.7995 57.3798H52.328Z" fill="#EA792E"/>
<path d="M52.328 57.3798V58.5014H40.4967C40.2414 58.1439 40.0083 57.7687 39.7995 57.3798H52.328Z" fill="#DD5E26"/>
<path d="M54.1236 62.035V62.9207H49.0635C47.5584 62.9207 46.1286 62.6051 44.8344 62.035H54.1236Z" fill="#EA792E"/>
<path d="M54.1236 62.035V62.9207H49.0635C47.5584 62.9207 46.1286 62.6051 44.8344 62.035H54.1236Z" fill="#DD5E26"/>
<path d="M49.6346 43.4159V46.2747H38.5572C38.5748 45.6813 38.6407 45.1021 38.7531 44.5375C38.7772 44.415 38.8032 44.2933 38.8329 44.1718L39.041 43.4161H49.6346V43.4159Z" fill="#EA792E"/>
<path d="M49.6346 43.4159V44.5375H38.7531C38.7772 44.415 38.8032 44.2933 38.8329 44.1718L39.041 43.4161H49.6346V43.4159Z" fill="#DD5E26"/>
<path d="M52.4291 38.7606V41.6202H39.7985C39.9758 41.2897 40.1708 40.9703 40.3815 40.663C40.5663 40.3937 40.7632 40.1329 40.971 39.8822C41.3026 39.4821 41.6637 39.1069 42.0508 38.7606H52.4291Z" fill="#EA792E"/>
<path d="M52.4291 38.7606V39.8822H40.971C41.3026 39.4821 41.6637 39.1069 42.0508 38.7606H52.4291Z" fill="#DD5E26"/>
<path d="M54.5906 36.5099V36.9648H44.8344C46.1277 36.3947 47.5585 36.0791 49.0635 36.0791H51.6047C52.6418 36.0791 53.6445 36.2295 54.5906 36.5099Z" fill="#EA792E"/>
<path d="M66.4475 46.589V52.4111C66.4475 53.2963 66.3379 54.1556 66.1314 54.9771C64.9867 59.5407 60.8567 62.9208 55.9369 62.9208H53.3952C47.5899 62.9208 42.8845 58.2154 42.8845 52.4111V46.589C42.8845 44.3911 43.5597 42.3504 44.7134 40.6635C46.606 37.8956 49.7886 36.0793 53.3952 36.0793H55.9369C61.7421 36.0792 66.4475 40.7846 66.4475 46.589Z" fill="#F9C744"/>
<path d="M66.4475 46.5889V52.4111C66.4475 53.2963 66.3379 54.1555 66.1314 54.977C64.58 55.5067 62.9334 55.7913 61.2276 55.7913C53.0756 55.7913 46.2756 49.2948 44.7134 40.6633C46.6059 37.8953 49.7886 36.0791 53.3952 36.0791H55.9368C61.7421 36.0791 66.4475 40.7845 66.4475 46.5889Z" fill="#FAD98F"/>
<path d="M58.8953 41.1764C58.2637 41.575 58.075 42.4103 58.4736 43.0418L60.8459 46.7999C61.2445 47.4314 62.0798 47.6202 62.7113 47.2216C63.3428 46.823 63.5316 45.9877 63.133 45.3562L60.7606 41.5981C60.362 40.9664 59.5269 40.7777 58.8953 41.1764Z" fill="#FAEFDC"/>
<path d="M55.8258 37.2534H53.5065C50.2156 37.2534 47.3113 38.9108 45.5845 41.4365C44.5317 42.9758 43.9157 44.838 43.9157 46.8436V52.1565C43.9157 57.4529 48.2093 61.7467 53.5065 61.7467H55.8258C60.3153 61.7467 64.0839 58.6623 65.1283 54.498C65.3167 53.7484 65.4167 52.9643 65.4167 52.1565V46.8436C65.4167 41.5472 61.123 37.2534 55.8258 37.2534ZM65.0144 52.057C65.0144 52.8347 64.9181 53.5894 64.7368 54.3109C63.7315 58.3193 60.1038 61.2883 55.7823 61.2883H53.5497C48.4507 61.2883 44.3176 57.1552 44.3176 52.057V46.9429C44.3176 45.0125 44.9106 43.22 45.924 41.7382C47.5863 39.3069 50.382 37.7116 53.5497 37.7116H55.7823C60.8813 37.7116 65.0144 41.8447 65.0144 46.9429V52.057Z" fill="#DD5E26"/>
<path d="M55.7823 37.7115H53.5497C50.382 37.7115 47.5863 39.307 45.924 41.7381C44.9106 43.2199 44.3176 45.0124 44.3176 46.9428V52.057C44.3176 57.1553 48.4507 61.2883 53.5497 61.2883H55.7823C60.1038 61.2883 63.7315 58.3192 64.7368 54.3108C64.9183 53.5893 65.0144 52.8346 65.0144 52.057V46.9428C65.0144 41.8447 60.8815 37.7115 55.7823 37.7115ZM64.0585 51.8209C64.0585 52.5266 63.9712 53.2116 63.8065 53.8665C62.8939 57.5048 59.6015 60.1995 55.679 60.1995H53.6526C49.0246 60.1995 45.2733 56.4482 45.2733 51.8209V47.1791C45.2733 45.427 45.8116 43.8 46.7313 42.4551C48.24 40.2484 50.7774 38.8004 53.6526 38.8004H55.679C60.307 38.8004 64.0583 42.5517 64.0583 47.1791V51.8209H64.0585Z" fill="#EA792E"/>
<path d="M58.4103 48.9195H58.2871L58.8615 48.0712H58.8607C59.1139 47.7273 59.2636 47.3025 59.2636 46.8425V45.9128C59.2636 44.7654 58.3339 43.8359 57.1868 43.8359H56.9318V41.3887C56.9318 40.9898 56.6084 40.6655 56.2086 40.6655H55.4664C55.0666 40.6655 54.7432 40.9899 54.7432 41.3887V43.8359H53.5447V41.3887C53.5447 40.9898 53.2213 40.6655 52.8216 40.6655H52.0793C51.6795 40.6655 51.3561 40.9899 51.3561 41.3887V43.8359H48.5213C48.1215 43.8359 47.7981 44.1593 47.7981 44.5591V45.3013C47.7981 45.7011 48.1215 46.0245 48.5213 46.0245H50.1168V52.9751H48.5213C48.1215 52.9751 47.7981 53.2985 47.7981 53.6983V54.4405C47.7981 54.8403 48.1215 55.1637 48.5213 55.1637H51.3561V57.6109C51.3561 58.0098 51.6795 58.3341 52.0793 58.3341H52.8216C52.8579 58.3341 52.8936 58.3314 52.9281 58.3263C53.2776 58.2743 53.5447 57.9733 53.5447 57.6109V55.1637H54.7432V57.6109C54.7432 58.0098 55.0666 58.3341 55.4664 58.3341H56.2086C56.245 58.3341 56.2807 58.3314 56.3154 58.3263C56.6648 58.2743 56.9319 57.9733 56.9319 57.6109V55.1637H58.4105C59.0886 55.1637 59.7061 54.8992 60.1631 54.4647C60.6548 54.0017 60.9618 53.3426 60.9618 52.6125V51.4705C60.9615 50.0615 59.8186 48.9195 58.4103 48.9195ZM53.5444 46.0248H56.2152C56.6992 46.0248 57.092 46.4176 57.092 46.9024V47.0472C57.092 47.4418 56.8318 47.7738 56.4754 47.8849C56.3931 47.9101 56.3054 47.9239 56.2152 47.9239H53.5444V46.0248ZM58.3383 51.7899C58.3383 52.2416 58.0859 52.6346 57.7139 52.8348C57.5465 52.9241 57.3558 52.9753 57.1527 52.9753H53.5444V50.4083H57.1527C57.8075 50.4083 58.3383 50.9391 58.3383 51.5938V51.7899Z" fill="#DD5E26"/>
<path d="M57.7924 49.8282H56.5697C57.2834 49.8282 57.9129 49.4683 58.2868 48.9194C58.3917 48.7668 58.4759 48.5995 58.5357 48.4207C58.6077 48.2109 58.6467 47.9854 58.6467 47.7512V46.8215C58.6467 45.6741 57.717 44.7446 56.5699 44.7446H56.3149V42.2974C56.3149 41.8984 55.9915 41.5742 55.5917 41.5742H54.8484C54.8129 41.5742 54.7774 41.5769 54.7427 41.582V44.7446H52.9276V42.2974C52.9276 41.8984 52.6033 41.5742 52.2045 41.5742H51.4612C51.4257 41.5742 51.3902 41.5769 51.3555 41.582V44.7446H47.903C47.8675 44.7446 47.832 44.7473 47.7973 44.7524V45.3013C47.7973 45.701 48.1207 46.0244 48.5204 46.0244H50.116V53.8838H47.903C47.8675 53.8838 47.832 53.8864 47.7973 53.8916V54.4404C47.7973 54.8402 48.1207 55.1636 48.5204 55.1636H51.3553V57.6108C51.3553 58.0098 51.6787 58.334 52.0785 58.334H52.8207C52.8571 58.334 52.8928 58.3313 52.9273 58.3262V55.1636H54.7424V57.6108C54.7424 58.0098 55.0658 58.334 55.4655 58.334H56.2078C56.2441 58.334 56.2798 58.3313 56.3145 58.3262V55.1636H58.4096C59.0878 55.1636 59.7052 54.8991 60.1623 54.4647C60.2793 54.1725 60.3436 53.8542 60.3436 53.5212V52.3792C60.3437 50.9702 59.2017 49.8282 57.7924 49.8282ZM52.9275 46.0248H56.2149C56.6989 46.0248 57.0916 46.4176 57.0916 46.9023V47.0471C57.0916 48.7632 56.2644 48.8326 55.5975 48.8326H52.9275V46.0248ZM58.3379 51.7898C58.3379 53.48 57.9269 53.8841 56.536 53.8841H52.9276V50.4084H57.1526C57.8073 50.4084 58.3381 50.9392 58.3381 51.5939V51.7898H58.3379Z" fill="#EA792E"/>
<defs>
<filter id="filter0_d" x="0" y="0" width="105" height="105" filterUnits="userSpaceOnUse" color-interpolation-filters="sRGB">
<feFlood flood-opacity="0" result="BackgroundImageFix"/>
<feColorMatrix in="SourceAlpha" type="matrix" values="0 0 0 0 0 0 0 0 0 0 0 0 0 0 0 0 0 0 127 0" result="hardAlpha"/>
<feOffset dy="3"/>
<feGaussianBlur stdDeviation="5"/>
<feComposite in2="hardAlpha" operator="out"/>
<feColorMatrix type="matrix" values="0 0 0 0 0.356863 0 0 0 0 0.380392 0 0 0 0 0.431373 0 0 0 0.25 0"/>
<feBlend mode="normal" in2="BackgroundImageFix" result="effect1_dropShadow"/>
<feBlend mode="normal" in="SourceGraphic" in2="effect1_dropShadow" result="shape"/>
</filter>
</defs>
</svg>
