<svg width="105" height="105" viewBox="0 0 105 105" fill="none" xmlns="http://www.w3.org/2000/svg">
<g filter="url(#filter0_d)">
<path d="M52.5 92C75.9721 92 95 72.9721 95 49.5C95 26.0279 75.9721 7 52.5 7C29.0279 7 10 26.0279 10 49.5C10 72.9721 29.0279 92 52.5 92Z" fill="white"/>
</g>
<path d="M84.1642 77.8471C83.4951 78.5958 82.7995 79.3197 82.079 80.0186C81.6108 80.4718 81.1311 80.9151 80.6413 81.3484L62.8876 54.7875L66.94 52.0798L68.0142 53.6869L71.972 59.6086L80.3325 72.1146L84.1642 77.8471Z" fill="#C4983D"/>
<path d="M84.1641 77.8471C83.4951 78.5959 82.7995 79.3197 82.079 80.0186L77.8888 73.7482L69.5282 61.2423C69.5266 61.2389 69.5249 61.2373 69.5232 61.234L66.7956 57.1533C66.1199 56.1423 66.3922 54.7726 67.4032 54.0953L68.0141 53.6869H68.0158L80.3325 72.1146L84.1641 77.8471Z" fill="#DAAB42"/>
<path d="M79.9273 74.1537C79.2524 74.6047 78.3395 74.4234 77.8883 73.7484L69.5285 61.242C69.0775 60.5671 69.2588 59.6542 69.9338 59.203C70.6086 58.7519 71.5216 58.9332 71.9728 59.6082L80.3325 72.1147C80.7836 72.7897 80.6021 73.7026 79.9273 74.1537Z" fill="#F9C744"/>
<path d="M88.414 42.138L80.2412 45.0327C76.343 46.4146 72.6314 48.2751 69.1935 50.5731L60.6348 56.294C57.1969 58.592 54.0586 61.3102 51.2911 64.3838L45.4915 70.8287C44.9948 71.3825 44.1386 70.9047 44.2465 70.2494C44.2578 70.1875 44.2761 70.1243 44.3046 70.0602L47.6877 62.4108C49.3457 58.6612 52.0362 55.4609 55.4451 53.1822L68.3025 44.5879C71.7115 42.3093 75.6974 41.047 79.796 40.9487L88.1577 40.7475C88.2277 40.7456 88.2933 40.7529 88.3547 40.7662C89.0015 40.9171 89.1157 41.8908 88.414 42.138Z" fill="#9175A7"/>
<path d="M88.3547 40.7662C88.3257 41.0104 88.1751 41.2399 87.8831 41.3436L80.1851 43.4726C79.5863 43.6371 78.9943 43.828 78.4099 44.042C74.8361 45.3546 71.3297 46.9259 68.1684 49.0391L59.6096 54.76C56.4483 56.8731 53.6556 59.5122 51.0762 62.3127C50.6552 62.7709 50.2523 63.2449 49.8713 63.7353L44.9606 70.0343C44.753 70.2645 44.4834 70.316 44.2467 70.2494C44.258 70.1875 44.2762 70.1243 44.3048 70.0602L47.6879 62.4108C48.4386 60.7102 49.4036 59.1236 50.5523 57.6842C50.5933 57.6319 50.6351 57.5808 50.6776 57.5306C52.0328 55.857 53.6377 54.3903 55.4451 53.1822L68.3025 44.5879C70.1099 43.3798 72.0789 42.4576 74.1435 41.8453C74.206 41.8252 74.2693 41.8061 74.3332 41.7882C76.1024 41.2772 77.9374 40.992 79.796 40.9487L88.1577 40.7475C88.2277 40.7456 88.2931 40.7531 88.3547 40.7662Z" fill="#A583BB"/>
<path d="M74.1434 41.8456C73.9975 42.9916 73.3741 44.0705 72.3374 44.7635L54.0642 56.9777C53.0276 57.6707 51.7921 57.8342 50.6775 57.5307C52.0327 55.8571 53.6375 54.3904 55.4449 53.1823L68.3024 44.588C70.1099 43.3799 72.0789 42.4577 74.1434 41.8456Z" fill="#C2AACF"/>
<path d="M65.556 46.4238L58.1915 51.3464C58.9245 52.4429 60.4077 52.7377 61.5042 52.0048L64.8976 49.7365C65.9942 49.0035 66.2889 47.5204 65.556 46.4238Z" fill="#9175A7"/>
<path d="M61.7738 44.3503L63.9873 47.6616C64.3935 48.2694 64.2297 49.0894 63.6229 49.4949L61.7683 50.7346C61.1615 51.1401 60.3414 50.9781 59.935 50.3702L57.7215 47.0588C57.7122 47.0449 57.7029 47.0309 57.6946 47.0163C57.342 46.4656 57.2397 45.8253 57.3581 45.2297C57.4796 44.6181 57.8337 44.0524 58.3934 43.6784C58.7043 43.4706 59.0463 43.3444 59.3946 43.2946C59.3956 43.2939 59.3956 43.2939 59.3956 43.2939C60.2813 43.1641 61.2015 43.5292 61.7446 44.3093C61.7552 44.3225 61.7645 44.3365 61.7738 44.3503Z" fill="#C4983D"/>
<path d="M61.7738 44.3502L63.9873 47.6615C64.3935 48.2693 64.2297 49.0893 63.6229 49.4948L62.2775 50.3941L59.637 46.4438C58.9892 45.4748 58.9366 44.2799 59.3946 43.2945C59.3956 43.2938 59.3956 43.2938 59.3956 43.2938C60.2969 43.1615 61.2343 43.543 61.7738 44.3502Z" fill="#DAAB42"/>
<path d="M61.7449 44.3092C61.3066 44.9945 60.7219 45.6024 60.0016 46.084C59.2812 46.5655 58.4958 46.8733 57.695 47.0164C57.3423 46.4657 57.2401 45.8254 57.3585 45.2297C57.48 44.6181 57.8341 44.0525 58.3937 43.6785C58.7047 43.4706 59.0467 43.3444 59.395 43.2946C59.396 43.294 59.396 43.294 59.396 43.294C60.2815 43.164 61.2017 43.5291 61.7449 44.3092Z" fill="#F9C744"/>
<path d="M54.5918 82.7662C52.417 80.5947 49.7375 78.9893 46.7924 78.0995L46.1499 77.9052L39.4279 75.8782C37.7561 75.3702 36.2902 74.3907 35.1978 73.0725C34.65 72.4217 34.1951 71.6846 33.8548 70.8844L31.4708 65.3096C30.2838 62.5355 27.5595 60.7375 24.5396 60.7375H11.5024C12.8272 65.5835 14.9888 70.0859 17.8226 74.0752C22.1424 80.1597 28.0226 85.0572 34.8791 88.1849C37.9139 89.5711 41.1412 90.6087 44.5097 91.2496C47.0978 91.7426 49.769 92 52.5 92C55.9847 92 59.3714 91.5799 62.612 90.7897L54.5918 82.7662Z" fill="#EA792E"/>
<path d="M35.1982 73.0732H21.8641C18.5644 73.0732 15.7275 70.7264 15.1071 67.4851L13.8169 60.7371H24.539C27.5601 60.7371 30.2844 62.5353 31.4713 65.3093L33.8539 70.8839C34.1956 71.684 34.6498 72.4214 35.1982 73.0732Z" fill="#F39E22"/>
<path d="M62.612 90.7897C59.3714 91.58 55.9846 92 52.5 92C49.769 92 47.0978 91.7427 44.5096 91.2496L38.1247 84.8646C35.5581 82.298 37.3793 77.9053 41.0117 77.9053H46.1499L46.7924 78.0995C49.7375 78.9894 52.417 80.5947 54.5918 82.7662L62.612 90.7897Z" fill="#F39E22"/>
<path d="M34.8791 88.185C28.0226 85.0572 22.1424 80.1598 17.8226 74.0753H18.4834C22.7267 74.0753 26.8008 75.762 29.804 78.7653L34.4491 83.412C35.8486 84.8115 35.827 86.8004 34.8791 88.185Z" fill="#F39E22"/>
<path d="M38.3443 73.2717L36.3819 66.6759C35.8212 64.7913 36.6872 62.7753 38.4401 61.8846L40.9817 60.5932C41.8109 60.1719 42.7638 60.8821 42.5972 61.7972L40.5281 73.1526C40.3161 74.3164 38.6817 74.4055 38.3443 73.2717Z" fill="#F39E22"/>
<path d="M58.9837 76.12L63.5679 73.7013C64.8778 73.0102 66.4943 73.3538 67.4097 74.5179L68.7371 76.2057C69.1703 76.7563 68.7856 77.5647 68.085 77.5759L59.3925 77.7159C58.5018 77.7302 58.1958 76.5359 58.9837 76.12Z" fill="#F39E22"/>
<path d="M46.537 75.1779L50.5332 70.0955C51.6751 68.6434 53.6913 68.2146 55.3252 69.0764L57.6943 70.326C58.4673 70.7337 58.439 71.85 57.6466 72.2182L47.8127 76.7888C46.8048 77.2571 45.8501 76.0515 46.537 75.1779Z" fill="#EA792E"/>
<path d="M66.2295 33.1482L65.0906 33.3075V33.3092C63.9265 33.4477 60.4784 34.0126 59.3166 34.0745C57.181 34.1838 55.0025 33.5665 53.2371 32.3745H53.2354C52.2609 31.7224 51.3993 30.8968 50.707 29.9524C49.7237 28.6236 49.0837 27.028 48.8526 25.3886C48.6469 23.8691 48.2766 21.3345 48.0724 19.8437C47.4354 15.6908 49.6807 11.3503 53.4313 9.45791C54.2104 9.05366 55.0455 8.75135 55.9033 8.56474C56.4623 8.42529 58.4995 8.17992 59.0925 8.08496L60.7692 7.84922C60.7792 7.84756 60.7875 7.8459 60.7975 7.84424C60.7986 7.84457 60.8942 7.83029 60.8954 7.83096C61.5097 7.95381 62.1173 8.08828 62.7199 8.23935C63.8804 16.4583 65.0705 24.9302 66.2295 33.1482Z" fill="#F39E22"/>
<path d="M48.2692 21.2311L58.8203 19.739L59.2053 22.4615L48.6542 23.9536L48.2692 21.2311Z" fill="#EA792E"/>
<path d="M48.2692 21.2311L58.8203 19.739L58.9714 20.8078L48.4203 22.2999L48.2692 21.2311Z" fill="#DD5E26"/>
<path d="M59.4496 24.2007L59.8331 26.923L49.7446 28.3441C49.3447 27.512 49.0578 26.6082 48.9014 25.6865L59.4496 24.2007Z" fill="#EA792E"/>
<path d="M59.4487 24.2007L59.5991 25.2688L49.1393 26.7422C49.0414 26.3989 48.9612 26.0468 48.9004 25.6865L59.4487 24.2007Z" fill="#DD5E26"/>
<path d="M62.6381 28.2717L63.0217 30.995L53.2348 32.3736C52.2606 31.7219 51.4015 30.8991 50.707 29.9525L62.6381 28.2717Z" fill="#EA792E"/>
<path d="M62.6381 28.2717L62.7885 29.3399L51.5215 30.927C51.2305 30.6209 50.9582 30.295 50.707 29.9525L62.6381 28.2717Z" fill="#DD5E26"/>
<path d="M64.9726 32.4641L65.0914 33.3076L60.2727 33.9863C58.8395 34.1882 57.4355 34.0794 56.1264 33.7101L64.9726 32.4641Z" fill="#EA792E"/>
<path d="M64.9726 32.4641L65.0914 33.3076L60.2727 33.9863C58.8395 34.1882 57.4355 34.0794 56.1264 33.7101L64.9726 32.4641Z" fill="#DD5E26"/>
<path d="M58.2 15.3352L58.5835 18.0575L48.0343 19.5434C47.9234 18.6167 47.9691 17.6692 48.1115 16.7561L58.2 15.3352Z" fill="#EA792E"/>
<path d="M58.2 15.3352L58.3504 16.4033L47.9879 17.863C47.9923 17.6184 48.0802 17.0066 48.1115 16.7563L58.2 15.3352Z" fill="#DD5E26"/>
<path d="M60.2368 10.527L60.6205 13.2503L48.5921 14.9445C48.9989 13.8428 49.5972 12.8162 50.3536 11.919L60.2368 10.527Z" fill="#EA792E"/>
<path d="M60.2368 10.527L60.3872 11.5951L49.4757 13.1321C49.7377 12.7066 50.0313 12.3009 50.3536 11.9192L60.2368 10.527Z" fill="#DD5E26"/>
<path d="M61.9933 8.09385L62.0544 8.52715L52.7635 9.83585C53.9186 9.11949 55.2388 8.62692 56.672 8.42505C58.2682 8.20441 60.4233 7.78987 61.9933 8.09385Z" fill="#EA792E"/>
<path d="M75.4616 24.1328C74.9855 28.8468 71.1288 32.7143 66.2295 33.1475C65.7907 33.213 64.825 33.3409 64.3983 33.4048C59.473 34.1535 54.5672 30.9383 53.2637 26.1615C53.016 25.4032 52.9054 24.1951 52.7789 23.3957C52.6864 22.7408 52.4865 21.314 52.3971 20.673C52.2569 19.6258 52.0199 18.3261 52.1132 17.2813C52.2808 14.0279 54.1097 10.9558 56.8894 9.25449C58.0696 8.51639 59.4738 8.01286 60.8937 7.83008C61.5087 7.9521 62.1168 8.08757 62.7199 8.23848C66.4584 9.15538 70.0563 10.5974 73.4014 12.4868C74.0223 13.5709 74.4522 14.7878 74.6365 16.101L75.4184 21.6459C75.5363 22.4893 75.5479 23.3227 75.4616 24.1328Z" fill="#F9C744"/>
<path d="M75.4616 24.1328C70.1549 26.8604 63.7271 25.9208 59.1655 22.1805H59.1639C56.3509 19.924 54.2715 16.7956 53.1441 13.3733C54.6066 10.3857 57.5686 8.24628 60.8937 7.83008C65.28 8.70332 69.5146 10.2889 73.4014 12.4868C74.0223 13.5709 74.4522 14.7878 74.6365 16.101L75.4184 21.6459C75.5363 22.4893 75.5479 23.3227 75.4616 24.1328Z" fill="#FAD98F"/>
<path d="M66.7187 11.9604C66.1707 12.4248 66.103 13.2454 66.5673 13.7934L69.3307 17.054C69.795 17.602 70.6156 17.6697 71.1636 17.2054C71.7116 16.741 71.7794 15.9204 71.315 15.3724L68.5515 12.1117C68.0872 11.5638 67.2666 11.4959 66.7187 11.9604Z" fill="#FAEFDC"/>
<path d="M74.4024 21.5413L73.6886 16.4828C73.4014 14.4392 72.4634 12.6462 71.1137 11.2849C70.6106 11.0375 70.1026 10.8018 69.5896 10.576C73.6074 13.4011 73.3017 17.1192 74.0057 21.5015C74.7104 26.2223 71.3487 30.8678 66.4519 31.5305C66.1456 31.5753 64.6585 31.7803 64.3253 31.8293C61.9015 32.1663 59.5469 31.517 57.6581 30.0613H57.6564C55.8397 28.6694 54.6057 26.5535 54.2963 24.2773C54.208 23.6481 54.0029 22.1928 53.9128 21.5496C53.8092 20.7254 53.6086 19.592 53.5442 18.7689C53.181 14.2192 56.6054 9.96888 61.1627 9.37737C62.538 9.20538 64.2217 8.84147 65.587 9.05364C65.0524 8.88098 64.5129 8.71829 63.9683 8.56555C63.7359 8.58049 63.5035 8.60374 63.2694 8.63694C62.9757 8.68774 61.392 8.8941 61.0598 8.94739C56.8773 9.50603 53.5716 12.9924 53.1707 17.132C53.0302 18.2094 53.2162 19.4553 53.3782 20.5353C53.5832 21.886 53.7863 23.6232 54.019 24.9662C54.5762 27.8325 56.5717 30.3299 59.2253 31.5288C60.7752 32.2362 62.5348 32.5291 64.3469 32.2726L66.0718 32.0285C71.3514 31.5727 75.1777 26.629 74.4024 21.5413Z" fill="#DD5E26"/>
<path d="M74.0056 21.5015C73.2998 17.1102 73.6085 13.4044 69.5896 10.576C68.2881 10.0033 66.9533 9.49524 65.587 9.05364C64.8399 8.96399 64.0696 8.96898 63.2893 9.07855C63.0259 9.12453 61.4652 9.32774 61.1627 9.37737C59.0285 9.6845 57.1891 10.6912 55.7904 12.2428C54.0547 14.1618 53.2346 16.8409 53.6106 19.408C53.6877 19.9406 53.8359 21.0171 53.9128 21.5496C54.0038 22.1905 54.2068 23.6459 54.2963 24.2773C54.6057 26.5534 55.8397 28.6696 57.6564 30.0613H57.6581C59.5472 31.5172 61.9013 32.1662 64.3253 31.8293L66.0103 31.5919C71.0834 31.145 74.7516 26.3875 74.0056 21.5015ZM66.2079 30.5078C65.2721 30.6121 63.935 30.8968 63.0021 30.8581C60.4023 30.8148 57.9909 29.4998 56.5292 27.3884C55.8168 26.3687 55.3475 25.1643 55.1745 23.9237L55.055 23.0753C54.964 22.4257 54.7616 20.9897 54.6715 20.3527C54.6134 19.8515 54.4764 19.1343 54.4772 18.6361C54.3212 15.0491 56.7855 11.6246 60.2546 10.6524C60.957 10.4204 62.2509 10.2938 62.9938 10.1776C67.4917 9.35994 71.8139 12.4462 72.4401 16.9842L73.0627 21.4052C73.702 25.6931 70.648 29.9067 66.2079 30.5078Z" fill="#EA792E"/>
<path d="M70.2205 22.574L70.0661 21.4866C69.876 20.0997 68.5497 19.16 67.1774 19.4163C67.4162 18.8821 67.8792 18.1978 67.8498 17.5852C67.8583 17.3929 67.7274 16.6248 67.7037 16.4214C67.5437 15.2244 66.3616 14.486 65.2052 14.7563L64.8765 12.4254C64.8233 12.0469 64.4714 11.7813 64.0912 11.8344C63.9858 11.8542 63.3314 11.927 63.2462 11.9689C62.9424 12.0768 62.7448 12.3872 62.793 12.7193C62.8814 13.3387 63.0324 14.4327 63.12 15.0501L61.9795 15.2112L61.6508 12.8803C61.5976 12.5001 61.2457 12.2345 60.8655 12.2893L60.492 12.3424L60.1583 12.3889C59.7781 12.442 59.5125 12.794 59.5673 13.1741C59.6568 13.8022 59.8055 14.8778 59.8943 15.505C59.2472 15.5961 57.8288 15.7959 57.1949 15.8852C56.8126 15.9371 56.5524 16.2923 56.6039 16.6704L56.6305 16.8547L56.7035 17.3777C56.7566 17.7578 57.1086 18.0235 57.4888 17.9687C57.8025 17.9244 58.707 17.7972 59.0078 17.7545C59.1881 19.0332 59.7706 23.1673 59.9408 24.3736C59.6441 24.4152 58.7324 24.5442 58.4218 24.5877C58.0399 24.6425 57.776 24.9928 57.8291 25.3746C57.8331 25.4057 57.8508 25.529 57.8557 25.5573L57.9287 26.0802C57.9835 26.462 58.3338 26.726 58.7156 26.6729C59.3451 26.5844 60.7737 26.383 61.415 26.2927C61.4248 26.3749 61.7432 28.6304 61.7421 28.6219C61.7969 29.0021 62.1472 29.2677 62.529 29.2146L62.7664 29.1814C62.8411 29.1683 63.2719 29.117 63.3358 29.0934C63.6612 28.9971 63.8754 28.675 63.8272 28.3297L63.4985 25.9989L64.6407 25.8378L64.9678 28.1687C65.0159 28.5007 65.2882 28.7448 65.6119 28.7647C65.7007 28.7806 66.3598 28.6697 66.4619 28.6601C66.8343 28.6096 67.108 28.2553 67.0529 27.8748C67.0519 27.8697 66.7235 25.5488 66.7242 25.544L68.132 25.3464C69.4698 25.1568 70.4096 23.9185 70.2205 22.574ZM67.1575 23.2214C67.0098 23.3293 66.8354 23.4024 66.6412 23.4306L64.8947 23.6763L63.2047 23.9137L62.861 21.4699C63.7168 21.3488 65.4406 21.1054 66.2975 20.9852C66.9201 20.8972 67.4978 21.3322 67.5858 21.9564C67.6952 22.4358 67.551 22.9435 67.1575 23.2214ZM65.7696 17.6549C65.8671 18.0641 65.6976 18.4993 65.3131 18.6742C65.1579 18.7649 64.4002 18.8286 64.2174 18.8652L62.5273 19.1042L62.2733 17.2947L63.9634 17.0573L64.8167 16.9377C65.2782 16.8713 65.7049 17.1934 65.7696 17.6549Z" fill="#DD5E26"/>
<path d="M69.754 23.5218L69.6013 22.4344C69.412 21.093 68.1702 20.1584 66.8288 20.3476L65.665 20.512C66.7631 20.3621 67.5224 19.3223 67.3634 18.2542L67.2389 17.3693C67.077 16.1723 65.897 15.4339 64.7403 15.7042L64.4116 13.3733C64.3585 12.9948 64.0065 12.7292 63.6264 12.7823C63.4147 12.8165 63.0282 12.856 62.8179 12.9035C62.9439 13.7943 63.1162 15.0276 63.2429 15.915L61.5146 16.159L61.1859 13.8282C61.1338 13.4443 60.7711 13.1849 60.4007 13.2372C60.3363 13.248 59.634 13.3386 59.5922 13.3584C59.7185 14.2538 59.89 15.477 60.0172 16.3699C59.1474 16.499 57.4969 16.7112 56.6305 16.8546L56.7035 17.3776C56.7566 17.7578 57.1086 18.0234 57.4888 17.9686C57.8027 17.9243 58.707 17.7971 59.0078 17.7544C59.1879 19.0329 59.7712 23.1671 59.9392 24.3735H59.9408L60.062 25.2401C59.6832 25.3005 58.2528 25.4815 57.8557 25.5572L57.9287 26.0801C57.9835 26.462 58.3338 26.7259 58.7156 26.6728L59.7765 26.5234L61.415 26.2926C61.4257 26.3756 61.7426 28.6293 61.7421 28.6218C61.7969 29.002 62.1472 29.2676 62.529 29.2145L62.7664 29.1813C62.8393 29.1684 63.2733 29.1167 63.3358 29.0933L62.9125 26.0818C63.2821 26.0293 64.2591 25.8915 64.6407 25.8377L64.9678 28.1686C65.0207 28.5518 65.3823 28.8141 65.7547 28.7596C65.8186 28.7483 66.5195 28.6588 66.5615 28.6384L66.1382 25.6269C66.5205 25.5734 67.7303 25.4021 68.132 25.3463C68.7778 25.255 69.3307 24.9197 69.7075 24.4449C69.7806 24.151 69.7988 23.8389 69.754 23.5218ZM62.2733 17.2946L63.9634 17.0572L64.8167 16.9376C65.385 16.8643 65.7851 17.3034 65.7945 17.8524C65.9878 19.6072 65.1535 19.6045 64.3402 19.7317L62.0625 20.0521L61.6856 17.3776L62.2733 17.2946ZM66.1764 24.3785C65.1716 24.5194 63.7429 24.7205 62.7398 24.8616C62.6997 24.5795 62.3235 21.908 62.2733 21.5529C62.6545 21.4993 64.1413 21.2886 64.5511 21.2308L66.2976 20.9851C66.9201 20.8971 67.4979 21.3321 67.5858 21.9563C67.8488 23.56 67.6071 24.2176 66.1764 24.3785Z" fill="#EA792E"/>
<path d="M36.2089 15.0335C34.1597 21.3836 31.8374 28.5819 29.7907 34.9255C29.4027 34.8023 28.6728 34.5654 28.2966 34.4424C27.0468 34.0025 24.4892 33.3552 23.4024 32.6279C20.2143 30.7273 18.6969 26.6445 19.8779 23.1268C19.946 22.9237 20.2661 21.9152 20.3295 21.7273C23.1969 18.4051 26.5813 15.5311 30.3236 13.2389C31.1315 13.3393 32.6593 13.9015 33.4563 14.1453C34.1969 14.3874 35.4606 14.791 36.2089 15.0335Z" fill="#F39E22"/>
<path d="M29.1283 22.5607C29.0103 22.9291 28.8328 23.4738 28.7133 23.8423C28.7144 23.8452 28.5212 24.4338 28.5223 24.4367L28.4443 24.6791C26.0286 23.8999 22.6464 22.8086 20.2315 22.0294L20.3278 21.729C20.786 21.1999 21.2542 20.6811 21.7373 20.175C24.0741 20.9281 26.7981 21.809 29.1283 22.5607Z" fill="#EA792E"/>
<path d="M29.1283 22.5607C29.0724 22.7352 28.9191 23.2118 28.861 23.3924C26.4603 22.6158 23.4896 21.6586 21.0799 20.8806C21.2973 20.6432 21.5148 20.4075 21.7373 20.175C24.0741 20.9281 26.7981 21.809 29.1283 22.5607Z" fill="#DD5E26"/>
<path d="M28.0155 26.0101L27.3318 28.1286L19.4808 25.595C19.4838 24.8475 19.5945 24.0876 19.8067 23.361L28.0155 26.0101Z" fill="#EA792E"/>
<path d="M28.0155 26.0101L27.7472 26.8413L19.6073 24.2144C19.6574 23.9297 19.7235 23.6448 19.8067 23.361L28.0155 26.0101Z" fill="#DD5E26"/>
<path d="M28.8985 30.1035L28.2147 32.2229L20.5984 29.765C20.1193 28.9456 19.7846 28.0425 19.6138 27.1073L28.8985 30.1035Z" fill="#EA792E"/>
<path d="M28.8985 30.1044L28.6303 30.9356L19.862 28.1062C19.7582 27.7801 19.6752 27.4465 19.6134 27.1083L28.8985 30.1044Z" fill="#DD5E26"/>
<path d="M29.116 33.9831L28.9042 34.6395L25.1542 33.4294C24.0388 33.0695 23.0546 32.4936 22.2318 31.7616L29.116 33.9831Z" fill="#EA792E"/>
<path d="M29.116 33.9831L28.9042 34.6395L25.1542 33.4294C24.0388 33.0695 23.0546 32.4936 22.2318 31.7616L29.116 33.9831Z" fill="#DD5E26"/>
<path d="M30.2423 19.1109C30.0827 19.6036 29.7203 20.7267 29.5583 21.2292C27.4383 20.5444 24.9533 19.744 22.8396 19.0611C23.4509 18.4646 24.0788 17.8888 24.7256 17.3312C26.3542 17.856 28.5957 18.5791 30.2423 19.1109Z" fill="#EA792E"/>
<path d="M30.2423 19.1109L29.9733 19.9426C28.1842 19.366 25.7343 18.5726 23.9652 18.0035C24.2159 17.7761 24.4682 17.552 24.7256 17.3312C26.3542 17.856 28.5957 18.5791 30.2423 19.1109Z" fill="#DD5E26"/>
<path d="M33.4264 16.3285C33.2614 16.8355 32.9095 17.9312 32.7425 18.4485C30.869 17.843 27.8394 16.8667 26.0006 16.272C26.7119 15.7056 27.4401 15.1574 28.187 14.6384C29.7275 15.1345 31.8734 15.8269 33.4264 16.3285Z" fill="#EA792E"/>
<path d="M33.4265 16.3285C33.4193 16.3482 33.1738 17.1101 33.1575 17.1602C31.3373 16.5732 29.1147 15.8552 27.3055 15.2709C27.596 15.0551 27.8898 14.8443 28.187 14.6384C29.7275 15.1345 31.8734 15.8269 33.4265 16.3285Z" fill="#DD5E26"/>
<path d="M35.5664 15.178L35.4585 15.515C34.2421 15.1228 30.8339 14.024 29.6695 13.6473C29.8853 13.5095 30.1045 13.3717 30.3236 13.2389C31.1329 13.3397 32.6581 13.9013 33.4563 14.1453C34.2031 14.3864 34.93 14.7418 35.5664 15.178Z" fill="#EA792E"/>
<path d="M41.9432 25.4832C41.4543 26.8269 40.5102 30.4811 39.703 31.6241C37.7633 34.7324 33.8941 36.2498 30.2479 35.0732L28.3643 34.4654C24.062 33.0771 21.7003 28.4646 23.0883 24.163L24.4807 19.8481C25.8443 15.59 30.4524 13.1726 34.7835 14.573L36.6671 15.1807C40.9695 16.569 43.3314 21.1815 41.9432 25.4832Z" fill="#F9C744"/>
<path d="M41.9432 25.4831C41.4531 26.833 40.5108 30.4777 39.703 31.6241C31.6956 31.7891 26.0711 24.04 27.2532 15.8941C29.3177 14.2953 32.1108 13.7105 34.7836 14.5729L36.6672 15.1807C40.9695 16.5689 43.3314 21.1815 41.9432 25.4831Z" fill="#FAD98F"/>
<path d="M37.6407 19.6658C37.0775 19.8102 36.7378 20.384 36.8822 20.9474L37.7417 24.3C38.1338 25.6376 40.0813 25.1398 39.7819 23.777L38.9224 20.4245C38.778 19.861 38.204 19.5214 37.6407 19.6658Z" fill="#FAEFDC"/>
<path d="M36.3035 16.0246C36.0714 15.956 34.8462 15.5496 34.5852 15.4701C31.9482 14.6163 29.0978 15.3027 27.1345 17.1751C26.2378 18.0247 25.5649 19.1007 25.1838 20.2829L24.8899 21.1926C24.607 22.0745 24.1993 23.3394 23.9138 24.2208C22.6251 28.0416 24.835 32.4183 28.7282 33.6222L30.0713 34.0555C34.0767 35.5882 38.6159 33.3423 39.8479 29.3623L41.118 25.426C42.3847 21.4998 40.2298 17.2913 36.3035 16.0246ZM40.7959 25.4028C40.3666 26.583 39.5391 29.7927 38.8286 30.7966C37.08 33.6343 33.4389 34.9371 30.1808 33.7152L28.8693 33.2919C25.6269 32.2845 23.5122 28.9462 23.9353 25.6103C24.0012 24.9004 24.2838 24.0896 24.5048 23.4073C24.8589 22.3471 25.2537 21.0052 25.6353 19.9625C26.9706 16.5366 30.9955 14.6292 34.5072 15.8204L35.8187 16.2421C39.7699 17.3218 42.0701 21.4959 40.7959 25.4028Z" fill="#DD5E26"/>
<path d="M36.1624 16.3533C35.9527 16.2915 34.7464 15.8924 34.5072 15.8204C31.888 14.9612 28.9947 15.7199 27.1145 17.6798C26.3628 18.464 25.7914 19.4101 25.4577 20.4539L25.1887 21.2889C24.912 22.1452 24.5114 23.3855 24.2358 24.2423C22.9932 27.9287 25.1265 32.1357 28.8693 33.2919L30.1808 33.7152C34.0354 35.1833 38.3873 33.0153 39.574 29.1929L40.7959 25.4028C42.0161 21.6243 39.9409 17.5735 36.1624 16.3533ZM40.0322 25.3497C39.6421 26.4208 38.889 29.3334 38.2459 30.2455C36.7023 32.7206 33.6129 33.9342 30.7071 32.9947C29.9899 32.7385 28.9143 32.4741 28.2501 32.1148C25.932 30.9522 24.5086 28.4264 24.699 25.8577C24.7312 25.1174 24.9761 24.3395 25.212 23.6364C25.4768 22.8354 25.8507 21.6522 26.1101 20.8573C27.155 17.4762 30.9609 15.5211 34.3229 16.6505L35.5581 17.0489C39.1234 18.0445 41.1794 21.8215 40.0322 25.3497Z" fill="#EA792E"/>
<path d="M35.6383 26.5387L35.3715 26.5978L32.3983 27.2513C31.9551 27.3491 31.494 27.2003 31.1914 26.8618L28.9797 24.3902C28.5654 23.9275 28.6065 23.2159 29.0705 22.8042L33.6697 18.7249L34.04 18.3962C34.3859 18.0899 34.9335 18.2667 35.035 18.7172L36.4906 25.1988C36.6267 25.8039 36.2444 26.4053 35.6383 26.5387Z" fill="#DD5E26"/>
<path d="M35.7065 27.7869C35.1822 28.1809 31.5229 30.9509 30.9125 31.4107C30.572 31.6689 30.0834 31.4975 29.9664 31.1054L28.5107 26.3873L28.1948 25.3629C28.1332 25.1631 28.3879 25.0211 28.5255 25.1787L30.8585 27.8513C31.1642 28.2015 31.6383 28.3544 32.0909 28.249L35.546 27.4441C35.7497 27.3966 35.8734 27.6606 35.7065 27.7869Z" fill="#DD5E26"/>
<path d="M35.3717 26.5978L32.3985 27.2513C31.9552 27.349 31.4942 27.2003 31.1916 26.8618L28.9799 24.3901C28.5655 23.9275 28.6067 23.2159 29.0707 22.8042L33.6698 18.7249C33.8838 18.775 34.0703 18.9392 34.1252 19.1832L35.5808 25.6648C35.6572 26.0046 35.57 26.3426 35.3717 26.5978Z" fill="#EA792E"/>
<path d="M31.8022 29.1436C31.3494 29.249 30.8755 29.0961 30.5698 28.746L28.5107 26.3872L29.9664 31.1054C30.0004 31.2143 30.0605 31.3059 30.1375 31.3756L33.0277 29.1909C33.1736 29.0806 33.0652 28.8494 32.8871 28.8909L31.8022 29.1436Z" fill="#EA792E"/>
<path d="M33.7872 40.11L30.2632 42.0997C28.2315 43.2467 27.0162 45.2822 26.8303 47.4436C26.7169 48.7609 26.9857 50.1252 27.6846 51.3634L29.5365 54.6433C31.3826 57.9132 35.53 59.0673 38.8004 57.2209L42.3244 55.2312L33.7872 40.11Z" fill="#F39E22"/>
<path d="M28.1749 52.2001L34.4194 48.6727L35.3297 50.2842L29.0851 53.8115L28.1749 52.2001Z" fill="#EA792E"/>
<path d="M28.1748 52.2001L34.4194 48.6727L34.7766 49.3052L28.5321 52.8326L28.1748 52.2001Z" fill="#DD5E26"/>
<path d="M35.8795 51.2957L36.7888 52.9062L30.8208 56.2756C30.5423 56.017 30.2841 55.7316 30.0487 55.421C29.9029 55.2301 29.7661 55.0293 29.6396 54.8187L35.8795 51.2957Z" fill="#EA792E"/>
<path d="M35.8795 51.2957L36.2363 51.9275L30.0487 55.421C29.9029 55.2301 29.7661 55.0293 29.6396 54.8187L35.8795 51.2957Z" fill="#DD5E26"/>
<path d="M38.8772 53.061L39.7868 54.672L33.9972 57.9407C33.5053 57.833 33.0258 57.6705 32.5688 57.456C32.3113 57.3358 32.0606 57.1986 31.8192 57.0459L38.8772 53.061Z" fill="#EA792E"/>
<path d="M38.8772 53.061L39.234 53.6929L32.5688 57.456C32.3113 57.3358 32.0606 57.1986 31.8192 57.0459L38.8772 53.061Z" fill="#DD5E26"/>
<path d="M41.3695 55.1125L41.6512 55.6116L38.8005 57.2209C37.9527 57.6996 37.0467 57.9766 36.1363 58.0671L41.3695 55.1125Z" fill="#EA792E"/>
<path d="M41.3695 55.1125L41.6512 55.6116L38.8005 57.2209C37.9527 57.6996 37.0467 57.9766 36.1363 58.0671L41.3695 55.1125Z" fill="#DD5E26"/>
<path d="M32.9184 46.051L33.8277 47.6615L27.5872 51.1849C27.4084 50.8451 27.2613 50.4978 27.1451 50.144C27.1197 50.0673 27.0956 49.9904 27.0737 49.9125L26.9505 49.4206L32.9184 46.051Z" fill="#EA792E"/>
<path d="M32.9184 46.051L33.2752 46.6829L27.1451 50.1438C27.1197 50.0671 27.0956 49.9902 27.0737 49.9124L26.9505 49.4205L32.9184 46.051Z" fill="#DD5E26"/>
<path d="M33.0122 42.5397L33.9218 44.1507L26.8064 48.1679C26.8013 47.9254 26.8094 47.6833 26.8305 47.4433C26.8489 47.2328 26.8768 47.0233 26.9143 46.8159C26.9737 46.485 27.0579 46.1588 27.1658 45.8406L33.0122 42.5397Z" fill="#EA792E"/>
<path d="M33.0122 42.5397L33.369 43.1715L26.9141 46.8159C26.9736 46.485 27.0577 46.1588 27.1657 45.8406L33.0122 42.5397Z" fill="#DD5E26"/>
<path d="M33.5139 40.5844L33.6587 40.8407L28.1626 43.9437C28.7099 43.2112 29.4155 42.5782 30.2633 42.0996L31.6949 41.2914C32.2791 40.9615 32.8919 40.7273 33.5139 40.5844Z" fill="#EA792E"/>
<path d="M43.3993 42.491L45.2512 45.771C45.5328 46.2697 45.7443 46.7885 45.8892 47.3171C46.6959 50.2521 45.4443 53.4698 42.6727 55.0346L41.2408 55.843C37.9705 57.6894 33.8231 56.5353 31.977 53.2654L30.1251 49.9854C29.426 48.7473 29.1574 47.383 29.2707 46.0656C29.4565 43.9045 30.6719 41.8689 32.7036 40.7218L34.1355 39.9134C37.4058 38.067 41.5531 39.2212 43.3993 42.491Z" fill="#F9C744"/>
<path d="M43.3993 42.491L45.2512 45.771C45.5328 46.2697 45.7443 46.7885 45.8892 47.3171C45.1837 48.109 44.3466 48.7929 43.3857 49.3355C38.7932 51.9283 32.8962 50.4314 29.2709 46.0656C29.4567 43.9045 30.6721 41.8689 32.7038 40.7218L34.1357 39.9134C37.4058 38.067 41.5531 39.2212 43.3993 42.491Z" fill="#FAD98F"/>
<path d="M37.4233 41.8441C37.1943 42.2696 37.3535 42.8 37.779 43.0291L40.3108 44.3918C40.7363 44.6207 41.2667 44.4615 41.4958 44.036C41.7247 43.6105 41.5655 43.0801 41.14 42.851L38.6083 41.4883C38.1828 41.2594 37.6522 41.4186 37.4233 41.8441Z" fill="#FAEFDC"/>
<path d="M45.2966 47.9245C45.265 47.737 45.2235 47.551 45.1721 47.3667C45.0392 46.8836 44.8467 46.4105 44.5893 45.9556L42.8993 42.9623C41.2142 39.979 37.4307 38.9248 34.4458 40.6099L34.1602 40.7709L33.1392 41.3487C32.0684 41.953 31.2467 42.8279 30.7104 43.8389C30.5262 44.1875 30.3751 44.5511 30.2589 44.9263C30.1294 45.348 30.0447 45.7829 30.0065 46.2245C30.0032 46.271 29.9982 46.3192 29.9982 46.3657C29.9866 46.53 29.9816 46.6944 29.9849 46.8587C29.9883 47.1293 30.0115 47.3999 30.0513 47.6705C30.0895 47.9196 30.141 48.1669 30.2107 48.4126C30.3103 48.7729 30.4448 49.1282 30.6158 49.4751C30.6689 49.5847 30.7254 49.6926 30.7868 49.8005L31.1769 50.4928L31.5339 51.1237L32.0867 52.1032L32.4768 52.7938C32.5383 52.9017 32.6013 53.0063 32.6678 53.1092C32.8006 53.3167 32.945 53.5126 33.0977 53.6986C33.3484 54.004 33.6257 54.2796 33.9228 54.5237C34.2598 54.8042 34.6251 55.045 35.0086 55.2442C35.2792 55.3853 35.5597 55.5065 35.847 55.6044C36.3915 55.7953 36.9626 55.9082 37.5403 55.9398C38.6842 56.0029 39.8579 55.7505 40.9304 55.1462L41.9514 54.5702L42.2369 54.4091C44.591 53.0793 45.7431 50.443 45.2966 47.9245ZM42.0659 54.1634L41.8053 54.3112L40.8092 54.874C39.9409 55.3654 38.9996 55.6127 38.0666 55.6426C37.4341 55.6642 36.8032 55.5829 36.2006 55.4052C35.8984 55.3189 35.6029 55.206 35.3174 55.0699C34.9189 54.8839 34.5404 54.6515 34.1885 54.3743C33.8813 54.1369 33.5974 53.8646 33.3385 53.5624C33.1807 53.3798 33.033 53.1839 32.8969 52.9797C32.8188 52.8602 32.7425 52.7357 32.6711 52.6095L32.3125 51.9753L31.7613 50.9958L31.4044 50.3633L31.0458 49.7291C30.9744 49.603 30.908 49.4751 30.8466 49.3456C30.6805 48.9954 30.5527 48.6368 30.4597 48.2715C30.395 48.0242 30.3485 47.7718 30.317 47.5211V47.5195C30.302 47.3966 30.2904 47.2771 30.2838 47.1542C30.2655 46.8637 30.2688 46.5732 30.2937 46.286C30.2971 46.2544 30.2987 46.2245 30.3037 46.193C30.3552 45.6833 30.4714 45.1853 30.649 44.7072V44.7055C30.8017 44.2988 30.9976 43.9103 31.235 43.5434V43.5417C31.743 42.7581 32.442 42.0825 33.3102 41.5927L34.3063 41.0299L34.567 40.8822C37.4407 39.2602 41.0831 40.2745 42.7051 43.1466L44.332 46.027C44.5777 46.4653 44.7637 46.9218 44.8915 47.385C44.9612 47.6407 45.0143 47.8947 45.0492 48.152V48.1537C45.3696 50.5078 44.2606 52.9266 42.0659 54.1634Z" fill="#DD5E26"/>
<path d="M45.0492 48.1537V48.152C45.0143 47.8947 44.9612 47.6407 44.8915 47.385C44.7637 46.9218 44.5777 46.4653 44.332 46.027L42.7051 43.1466C41.0831 40.2746 37.4407 39.2602 34.567 40.8822L34.3063 41.0299L33.3102 41.5927C32.442 42.0825 31.743 42.7581 31.235 43.5417V43.5434C30.9976 43.9103 30.8017 44.2988 30.649 44.7055V44.7072C30.4714 45.1853 30.3552 45.6833 30.3037 46.193C30.2987 46.2246 30.297 46.2544 30.2937 46.286C30.2688 46.5732 30.2655 46.8637 30.2838 47.1542C30.2904 47.2771 30.302 47.3966 30.317 47.5195V47.5211C30.3485 47.7718 30.395 48.0242 30.4597 48.2715C30.5527 48.6368 30.6805 48.9954 30.8466 49.3456C30.908 49.4751 30.9744 49.603 31.0458 49.7291L31.4044 50.3633L31.7613 50.9958L32.3125 51.9753L32.6711 52.6095C32.7425 52.7357 32.8188 52.8602 32.8969 52.9797C33.033 53.1839 33.1807 53.3798 33.3385 53.5624C33.5974 53.8646 33.8813 54.1369 34.1885 54.3743C34.5404 54.6515 34.9189 54.8839 35.3174 55.0699C35.6029 55.206 35.8984 55.3189 36.2006 55.4052C36.8032 55.5829 37.4341 55.6642 38.0666 55.6426C38.9996 55.6127 39.9409 55.3654 40.8092 54.874L41.8053 54.3112L42.0659 54.1634C44.2606 52.9266 45.3696 50.5078 45.0492 48.1537ZM41.6625 53.584L41.4599 53.6986L40.5203 54.2282C40.2663 54.3726 40.0056 54.4921 39.74 54.5901C38.8884 54.9088 37.9935 54.9968 37.1303 54.8806C36.7766 54.8325 36.428 54.7495 36.091 54.6332C35.6494 54.4822 35.2261 54.273 34.8343 54.009C34.5039 53.7899 34.1951 53.5309 33.9179 53.2354C33.7502 53.0594 33.5941 52.8685 33.4497 52.6676C33.3368 52.5099 33.2322 52.3455 33.1343 52.1729L32.8504 51.6715L32.2992 50.6937L31.9423 50.0612L31.6584 49.5581C31.5621 49.3855 31.4741 49.2112 31.3994 49.0335C31.2433 48.6749 31.1304 48.3064 31.0574 47.9345C31.0508 47.8997 31.0441 47.8631 31.0391 47.8283C30.9993 47.6041 30.9744 47.3784 30.9644 47.1542C30.9512 46.9135 30.9561 46.6728 30.9777 46.4337C30.9976 46.2063 31.0308 45.9805 31.079 45.7564C31.2052 45.1704 31.4276 44.6076 31.7397 44.0913C32.0751 43.5318 32.5167 43.0288 33.0529 42.6137C33.2588 42.4527 33.4796 42.3066 33.7137 42.1738L34.6516 41.6425L34.8558 41.528C37.4623 40.0571 40.7693 40.9768 42.2419 43.5832L43.7178 46.198C43.9419 46.5964 44.1112 47.0098 44.2258 47.4315C44.337 47.8399 44.4001 48.2533 44.415 48.6666C44.4847 50.624 43.487 52.5531 41.6625 53.584Z" fill="#EA792E"/>
<path d="M41.275 44.8233L41.6943 46.6462C41.8232 47.2053 41.7412 47.8227 41.5046 48.364C41.2778 48.8811 40.9109 49.3282 40.4522 49.5872L35.8059 52.2104C35.6114 52.3203 35.366 52.2119 35.3159 51.9945L35.291 51.8858L35.2063 51.5184C35.1733 51.3743 35.2388 51.2256 35.3675 51.1528L39.542 48.7961C39.8391 48.6284 40.0735 48.3864 40.2314 48.1026C40.4443 47.721 40.5173 47.2653 40.4144 46.8177L40.0458 45.218C39.9811 44.9372 39.665 44.7976 39.4145 44.939L34.7395 47.5785C34.5454 47.6881 34.3003 47.5802 34.2499 47.3625L34.225 47.2538L34.1406 46.8869C34.1076 46.7428 34.173 46.5936 34.3017 46.5208L39.1204 43.8002C40.0583 43.2706 41.0228 43.729 41.275 44.8233Z" fill="#DD5E26"/>
<path d="M41.0472 45.6416L41.4666 47.4645C41.5333 47.7552 41.5434 48.0611 41.5046 48.3638C41.2778 48.8809 40.9109 49.328 40.4522 49.587L35.8059 52.2102C35.6114 52.3201 35.366 52.2117 35.3159 51.9944L35.291 51.8856L39.3142 49.6142C39.8717 49.2995 40.2105 48.7206 40.2313 48.1025C40.4441 47.7208 40.5171 47.2651 40.4142 46.8175L40.0456 45.2178C39.9809 44.9371 39.6648 44.7974 39.4143 44.9389L34.7393 47.5784C34.5452 47.6879 34.3002 47.58 34.2497 47.3624L34.2248 47.2536L38.8925 44.6183C39.8307 44.0889 40.795 44.5473 41.0472 45.6416Z" fill="#EA792E"/>
<path d="M37.2388 47.7864L37.418 48.4812C37.4613 48.6483 37.3866 48.8238 37.2365 48.9085L34.0903 50.6847C33.8685 50.8098 33.5885 50.6865 33.5312 50.4383L33.4455 50.0666L33.369 49.7332C33.3315 49.5689 33.4065 49.3989 33.5534 49.3159L36.6823 47.5493C36.9003 47.4263 37.1759 47.5432 37.2388 47.7864Z" fill="#DD5E26"/>
<path d="M37.011 48.6047L37.1083 48.9808L34.0903 50.6848C33.8685 50.81 33.5885 50.6867 33.5312 50.4385L33.4455 50.0668L36.4546 48.3679C36.6725 48.2447 36.9481 48.3614 37.011 48.6047Z" fill="#EA792E"/>
<defs>
<filter id="filter0_d" x="0" y="0" width="105" height="105" filterUnits="userSpaceOnUse" color-interpolation-filters="sRGB">
<feFlood flood-opacity="0" result="BackgroundImageFix"/>
<feColorMatrix in="SourceAlpha" type="matrix" values="0 0 0 0 0 0 0 0 0 0 0 0 0 0 0 0 0 0 127 0" result="hardAlpha"/>
<feOffset dy="3"/>
<feGaussianBlur stdDeviation="5"/>
<feComposite in2="hardAlpha" operator="out"/>
<feColorMatrix type="matrix" values="0 0 0 0 0.356863 0 0 0 0 0.380392 0 0 0 0 0.431373 0 0 0 0.25 0"/>
<feBlend mode="normal" in2="BackgroundImageFix" result="effect1_dropShadow"/>
<feBlend mode="normal" in="SourceGraphic" in2="effect1_dropShadow" result="shape"/>
</filter>
</defs>
</svg>
