<svg width="105" height="105" viewBox="0 0 105 105" fill="none" xmlns="http://www.w3.org/2000/svg">
<g filter="url(#filter0_d)">
<path d="M52.5 92C75.9721 92 95 72.9721 95 49.5C95 26.0279 75.9721 7 52.5 7C29.0279 7 10 26.0279 10 49.5C10 72.9721 29.0279 92 52.5 92Z" fill="white"/>
</g>
<path d="M68.4575 52.8421H57.6205V37.6034C57.6205 37.2825 57.3604 37.0223 57.0395 37.0223C56.7186 37.0223 56.4584 37.2825 56.4584 37.6034V68.7147C56.4584 69.0356 56.7186 69.2958 57.0395 69.2958C57.3604 69.2958 57.6205 69.0356 57.6205 68.7147V54.0042H68.4575C68.7784 54.0042 69.0386 53.7441 69.0386 53.4232C69.0386 53.1023 68.7784 52.8421 68.4575 52.8421Z" fill="#4FCAE8"/>
<path d="M79.288 60.3982C78.9671 60.3982 78.707 60.6583 78.707 60.9792V71.9026C78.707 72.2235 78.9671 72.4836 79.288 72.4836C79.6089 72.4836 79.8691 72.2235 79.8691 71.9026V60.9792C79.8691 60.6585 79.6088 60.3982 79.288 60.3982Z" fill="#4FCAE8"/>
<path d="M38.0428 50.5886H42.9238C46.7917 50.5886 49.9383 47.442 49.9383 43.5741V34.9702C49.9383 34.6493 49.6782 34.3892 49.3573 34.3892C49.0363 34.3892 48.7762 34.6493 48.7762 34.9702V43.5741C48.7762 46.8011 46.151 49.4265 42.9238 49.4265H38.0428C37.7219 49.4265 37.4617 49.6867 37.4617 50.0076C37.4617 50.3285 37.7221 50.5886 38.0428 50.5886Z" fill="#4FCAE8"/>
<path d="M57.1746 76.674H39.3209C36.0345 76.674 33.3117 74.2216 32.882 71.0509H42.1279C44.7211 71.0509 46.8307 68.9413 46.8307 66.3482V59.7587C46.8307 59.4378 46.5705 59.1776 46.2496 59.1776C45.9287 59.1776 45.6685 59.4378 45.6685 59.7587V66.3482C45.6685 68.3005 44.0803 69.8888 42.1279 69.8888H32.8211V60.22C32.8211 59.8991 32.5609 59.639 32.24 59.639C31.9191 59.639 31.659 59.8991 31.659 60.22V69.8888H23.4787C23.1578 69.8888 22.8977 70.1489 22.8977 70.4698C22.8977 70.7907 23.1578 71.0509 23.4787 71.0509H31.7108C32.1474 74.8641 35.3928 77.8361 39.3209 77.8361H57.1746C57.4955 77.8361 57.7556 77.576 57.7556 77.2551C57.7556 76.9341 57.4953 76.674 57.1746 76.674Z" fill="#4FCAE8"/>
<path d="M22.9257 35.0979C22.9257 34.777 22.6656 34.5168 22.3447 34.5168C22.0238 34.5168 21.7636 34.777 21.7636 35.0979V47.8155C21.7636 48.1364 22.0238 48.3966 22.3447 48.3966C22.6656 48.3966 22.9257 48.1364 22.9257 47.8155V35.0979Z" fill="#4FCAE8"/>
<path d="M22.3447 38.218C24.0679 38.218 25.4648 36.8211 25.4648 35.0979C25.4648 33.3747 24.0679 31.9778 22.3447 31.9778C20.6215 31.9778 19.2246 33.3747 19.2246 35.0979C19.2246 36.8211 20.6215 38.218 22.3447 38.218Z" fill="#CDE6F6"/>
<path d="M46.2496 62.8787C47.9728 62.8787 49.3697 61.4818 49.3697 59.7586C49.3697 58.0355 47.9728 56.6385 46.2496 56.6385C44.5264 56.6385 43.1295 58.0355 43.1295 59.7586C43.1295 61.4818 44.5264 62.8787 46.2496 62.8787Z" fill="#CDE6F6"/>
<path d="M23.4787 73.5899C25.2019 73.5899 26.5988 72.193 26.5988 70.4698C26.5988 68.7466 25.2019 67.3497 23.4787 67.3497C21.7556 67.3497 20.3586 68.7466 20.3586 70.4698C20.3586 72.193 21.7556 73.5899 23.4787 73.5899Z" fill="#CDE6F6"/>
<path d="M79.288 75.0227C81.0112 75.0227 82.4081 73.6258 82.4081 71.9026C82.4081 70.1794 81.0112 68.7825 79.288 68.7825C77.5648 68.7825 76.1679 70.1794 76.1679 71.9026C76.1679 73.6258 77.5648 75.0227 79.288 75.0227Z" fill="#CDE6F6"/>
<path d="M72.3162 21.1614C70.9471 19.6349 68.9497 18.6738 66.7377 18.6738C65.6918 18.6738 64.6963 18.888 63.7925 19.2778C63.1249 19.563 62.5085 19.9443 61.9568 20.402C61.8921 18.7236 61.4435 17.1445 60.6984 15.7471L61.5217 15.901L59.0916 13.485C58.8812 13.2572 58.6613 13.0386 58.4323 12.8296L58.4174 12.8146L58.4175 12.816C56.4391 11.0167 53.7925 9.93924 50.8926 10.0027C45.1142 10.129 40.4053 14.8618 40.3062 20.6408C40.3056 20.6788 40.3051 20.7168 40.3049 20.7547C40.2941 22.3338 39.0548 23.6276 37.4767 23.6807C37.4298 23.6822 37.383 23.6843 37.336 23.6867C33.5785 23.8821 30.5128 26.904 30.2699 30.6588C30.0813 33.5762 31.5665 36.1636 33.8593 37.5543C34.9888 38.2396 36.3146 38.6345 37.7335 38.6345H76.9301C79.9197 38.6345 82.4327 36.2653 82.4709 33.2759C82.4825 32.3719 82.2733 31.5184 81.8936 30.7652C81.0003 28.9912 79.1625 27.7751 77.0407 27.7751C76.9509 27.7751 76.862 27.7773 76.7732 27.7824C75.6061 27.8389 74.5363 28.264 73.6765 28.9442C74.0245 28.0813 74.2178 27.1398 74.2178 26.1525C74.2178 25.1033 74.0011 24.1047 73.6108 23.1982L74.4605 23.3042L72.3162 21.1614Z" fill="#C2AACF"/>
<path d="M82.4622 33.5196C82.2994 36.4104 79.8306 38.6345 76.9351 38.6345H37.7333C36.3145 38.6345 34.9886 38.2396 33.8592 37.5543C33.14 36.3711 32.7409 34.9722 32.7806 33.4766C32.8842 29.5714 36.0466 26.3637 39.95 26.2068C39.9994 26.2048 40.0489 26.2033 40.0982 26.2023C41.7016 26.1688 42.9603 24.8642 42.998 23.261C43.0008 23.1426 43.0055 23.0239 43.0121 22.9049C43.3148 17.4636 47.7017 13.0465 53.1411 12.7117C55.7045 12.5538 58.0915 13.2884 60.0198 14.637C61.6758 15.7915 62.9921 17.3983 63.7925 19.2779C63.7973 19.2894 63.8023 19.3009 63.8071 19.3123C64.4806 20.9056 66.1678 21.7889 67.8628 21.4443C68.3459 21.346 68.846 21.2944 69.3581 21.2944C70.7518 21.2944 72.0557 21.6757 73.1727 22.3391C75.0983 23.4821 76.4659 25.4652 76.7731 27.7824C76.8159 28.1063 76.8378 28.4375 76.8378 28.7739C76.8378 28.7958 76.8376 28.8175 76.8375 28.8394C76.8297 29.7462 77.6375 30.4196 78.5313 30.2659C78.8312 30.2144 79.1393 30.1875 79.454 30.1875C80.3316 30.1875 81.1602 30.3953 81.8936 30.7652C82.3072 31.5858 82.5182 32.5253 82.4622 33.5196Z" fill="#F0DAE2"/>
<path d="M60.9002 23.2363C60.1843 23.2363 59.4879 22.8655 59.1029 22.2016C58.2793 20.7811 56.9518 19.7664 55.3651 19.3444C53.7783 18.9217 52.1219 19.1431 50.7015 19.9669C49.7099 20.5418 48.4402 20.204 47.8653 19.2125C47.2906 18.2211 47.6282 16.9514 48.6197 16.3765C50.9992 14.9969 53.7736 14.6267 56.4319 15.3334C59.0901 16.0405 61.3137 17.7403 62.6935 20.12C63.2682 21.1114 62.9305 22.3813 61.9391 22.956C61.6114 23.1459 61.2533 23.2363 60.9002 23.2363Z" fill="white"/>
<path d="M49.4667 34.1405C48.9528 34.1405 48.4384 33.9509 48.0368 33.5689C47.2064 32.779 47.1735 31.4655 47.9636 30.635C49.8593 28.642 52.4178 27.5066 55.1675 27.4379C57.9187 27.3743 60.5293 28.3754 62.5221 30.2713C63.3524 31.0612 63.3852 32.3747 62.5953 33.2051C61.8056 34.0357 60.4919 34.0684 59.6615 33.2783C58.4719 32.1466 56.912 31.5455 55.2712 31.587C53.6297 31.628 52.1025 32.3058 50.9708 33.4955C50.5627 33.9243 50.0152 34.1405 49.4667 34.1405Z" fill="white"/>
<path d="M73.5245 31.3907C72.6059 31.3907 71.7662 30.7762 71.5198 29.8464C71.0669 28.1368 69.4008 27.0895 67.8047 27.5122C66.6971 27.8056 65.5609 27.1455 65.2673 26.0375C64.9738 24.9297 65.6341 23.7936 66.7421 23.5003C70.5491 22.4912 74.4928 24.8616 75.5318 28.7834C75.8253 29.8912 75.1652 31.0274 74.0572 31.3208C73.8792 31.3681 73.7003 31.3907 73.5245 31.3907Z" fill="white"/>
<path d="M36.6951 36.5315C36.6413 36.5315 36.5873 36.5293 36.5329 36.5252C35.3902 36.4369 34.5355 35.439 34.6237 34.2963C34.7719 32.3775 35.685 30.6381 37.1946 29.3983C38.679 28.1792 40.5667 27.5906 42.5104 27.7408C43.6531 27.8291 44.5079 28.827 44.4196 29.9699C44.3313 31.1126 43.334 31.9689 42.1907 31.8789C41.3198 31.812 40.4816 32.0698 39.8288 32.6059C39.2012 33.1212 38.8222 33.8352 38.762 34.616C38.6776 35.7042 37.7685 36.5313 36.6951 36.5315Z" fill="white"/>
<path d="M79.8679 43.2815H74.8935C72.0255 43.2815 69.4946 44.7258 67.9895 46.9269C67.0721 48.2684 66.5352 49.8912 66.5352 51.6389V56.2689C66.5352 60.8846 70.2771 64.6263 74.8935 64.6263H79.8679V43.2815Z" fill="#F39E22"/>
<path d="M66.5342 52.8169H75.3468V55.091H66.5342V52.8169Z" fill="#EA792E"/>
<path d="M66.5342 52.8169H75.3468V53.7096H66.5342V52.8169Z" fill="#DD5E26"/>
<path d="M75.3469 56.5189V58.7922H66.9227C66.7809 58.3469 66.6769 57.8856 66.6126 57.4108C66.5719 57.1184 66.5469 56.8209 66.5387 56.5189H75.3469Z" fill="#EA792E"/>
<path d="M75.3469 56.5189V57.4108H66.6126C66.5719 57.1184 66.5469 56.8209 66.5387 56.5189H75.3469Z" fill="#DD5E26"/>
<path d="M77.4888 60.2201V62.4942H69.3163C68.8548 62.0815 68.4399 61.6178 68.0803 61.1121C67.8773 60.8279 67.692 60.5295 67.5258 60.2203H77.4888V60.2201Z" fill="#EA792E"/>
<path d="M77.4888 60.2201V61.1119H68.0803C67.8773 60.8277 67.692 60.5294 67.5258 60.2201H77.4888Z" fill="#DD5E26"/>
<path d="M78.9167 63.922V64.6264H74.8928C73.696 64.6264 72.5589 64.3754 71.5298 63.922H78.9167Z" fill="#EA792E"/>
<path d="M78.9167 63.922V64.6264H74.8928C73.696 64.6264 72.5589 64.3754 71.5298 63.922H78.9167Z" fill="#DD5E26"/>
<path d="M75.3469 49.1157V51.389H66.5379C66.552 50.9172 66.6043 50.4565 66.6936 50.0076C66.7129 49.9101 66.7335 49.8133 66.7571 49.7167L66.9224 49.1157H75.3469Z" fill="#EA792E"/>
<path d="M75.3469 49.1157V50.0076H66.6938C66.7131 49.9101 66.7337 49.8133 66.7572 49.7167L66.9226 49.1157H75.3469Z" fill="#DD5E26"/>
<path d="M77.5693 45.4138V47.6879H67.5252C67.6662 47.4251 67.8212 47.1711 67.9889 46.9267C68.1358 46.7126 68.2924 46.5052 68.4577 46.3058C68.7213 45.9876 69.0086 45.6894 69.3164 45.414H77.5693V45.4138Z" fill="#EA792E"/>
<path d="M77.5693 45.4138V46.3057H68.4577C68.7214 45.9874 69.0086 45.6892 69.3164 45.4138H77.5693Z" fill="#DD5E26"/>
<path d="M79.2881 43.6241V43.9859H71.5298C72.5583 43.5325 73.696 43.2815 74.8928 43.2815H76.9135C77.7383 43.2817 78.5357 43.4012 79.2881 43.6241Z" fill="#EA792E"/>
<path d="M88.7167 51.6391V56.2691C88.7167 56.973 88.6296 57.6563 88.4654 58.3096C87.5551 61.9385 84.271 64.6267 80.3585 64.6267H78.3373C73.7209 64.6267 69.979 60.8848 69.979 56.2693V51.6393C69.979 49.8914 70.5159 48.2686 71.4333 46.9272C72.9383 44.7262 75.4694 43.2819 78.3373 43.2819H80.3585C84.9751 43.2815 88.7167 47.0234 88.7167 51.6391Z" fill="#F9C744"/>
<path d="M88.7168 51.6391V56.2691C88.7168 56.973 88.6296 57.6563 88.4654 58.3096C87.2317 58.7308 85.9224 58.9572 84.5659 58.9572C78.0833 58.9572 72.6758 53.7911 71.4335 46.9272C72.9385 44.7262 75.4695 43.2819 78.3375 43.2819H80.3587C84.9751 43.2815 88.7168 47.0233 88.7168 51.6391Z" fill="#FAD98F"/>
<path d="M82.7113 47.3349C82.2091 47.652 82.059 48.3161 82.3759 48.8183L84.2625 51.8069C84.5796 52.3091 85.2437 52.4592 85.7459 52.1422C86.2481 51.8251 86.3982 51.1611 86.0812 50.6589L84.1946 47.6703C83.8775 47.1681 83.2135 47.018 82.7113 47.3349Z" fill="#FAEFDC"/>
<path d="M80.2702 44.2153H78.4259C75.8089 44.2153 73.4994 45.5333 72.1261 47.5418C71.2889 48.766 70.799 50.2467 70.799 51.8416V56.0664C70.799 60.2782 74.2135 63.6926 78.4259 63.6926H80.2702C83.8404 63.6926 86.8371 61.2397 87.6677 57.9284C87.8176 57.3322 87.897 56.7088 87.897 56.0665V51.8418C87.8971 47.6298 84.4827 44.2153 80.2702 44.2153ZM87.5772 55.9873C87.5772 56.6056 87.5007 57.2057 87.3564 57.7796C86.5569 60.9673 83.6722 63.3282 80.2357 63.3282H78.4603C74.4054 63.3282 71.1188 60.0416 71.1188 55.9873V51.9206C71.1188 50.3855 71.5904 48.9601 72.3962 47.7817C73.7182 45.8483 75.9413 44.5797 78.4603 44.5797H80.2357C84.2906 44.5797 87.5772 47.8663 87.5772 51.9206V55.9873Z" fill="#DD5E26"/>
<path d="M80.2357 44.5797H78.4603C75.9412 44.5797 73.7181 45.8484 72.3963 47.7817C71.5904 48.96 71.1188 50.3854 71.1188 51.9206V55.9873C71.1188 60.0416 74.4054 63.3282 78.4603 63.3282H80.2357C83.6722 63.3282 86.5569 60.9671 87.3564 57.7796C87.5007 57.2059 87.5772 56.6057 87.5772 55.9873V51.9206C87.5772 47.8663 84.2906 44.5797 80.2357 44.5797ZM86.817 55.7995C86.817 56.3607 86.7477 56.9054 86.6167 57.4263C85.891 60.3195 83.2728 62.4624 80.1537 62.4624H78.5423C74.8621 62.4624 71.879 59.4793 71.879 55.7995V52.1084C71.879 50.715 72.307 49.4212 73.0384 48.3518C74.2382 46.597 76.256 45.4455 78.5423 45.4455H80.1537C83.8339 45.4455 86.817 48.4286 86.817 52.1084V55.7995Z" fill="#EA792E"/>
<path d="M82.3251 53.4923H82.2272L82.6839 52.8178H82.6832C82.8844 52.5444 83.0036 52.2067 83.0036 51.8408V51.1015C83.0036 50.1891 82.2644 49.45 81.3521 49.45H81.1494V47.5038C81.1494 47.1865 80.8923 46.9287 80.5743 46.9287H79.984C79.6661 46.9287 79.4089 47.1867 79.4089 47.5038V49.4498H78.4558V47.5038C78.4558 47.1865 78.1987 46.9287 77.8807 46.9287H77.2904C76.9725 46.9287 76.7153 47.1867 76.7153 47.5038V49.4498H74.461C74.1431 49.4498 73.8859 49.707 73.8859 50.0249V50.6153C73.8859 50.9332 74.1431 51.1903 74.461 51.1903H75.7298V56.7175H74.461C74.1431 56.7175 73.8859 56.9746 73.8859 57.2926V57.8829C73.8859 58.2008 74.1431 58.458 74.461 58.458H76.7153V60.404C76.7153 60.7213 76.9725 60.9791 77.2904 60.9791H77.8807C77.9096 60.9791 77.938 60.9771 77.9656 60.973C78.2435 60.9316 78.4558 60.6922 78.4558 60.404V58.458H79.4089V60.404C79.4089 60.7213 79.6661 60.9791 79.984 60.9791H80.5743C80.6032 60.9791 80.6316 60.9771 80.6592 60.973C80.9371 60.9316 81.1494 60.6922 81.1494 60.404V58.458H82.3251C82.8644 58.458 83.3554 58.2477 83.7188 57.9022C84.1098 57.534 84.354 57.0098 84.354 56.4291V55.5209C84.354 54.4006 83.4451 53.4923 82.3251 53.4923ZM78.4558 51.1905H80.5798C80.9646 51.1905 81.2771 51.5029 81.2771 51.8884V52.0036C81.2771 52.3174 81.0702 52.5815 80.7868 52.6699C80.7213 52.6898 80.6517 52.7009 80.58 52.7009H78.4558V51.1905ZM82.268 55.7749C82.268 56.1341 82.0673 56.4466 81.7715 56.6058C81.6383 56.6768 81.4866 56.7175 81.3252 56.7175H78.4558V54.6763H81.3252C81.8459 54.6763 82.2679 55.0983 82.2679 55.619V55.7749H82.268Z" fill="#DD5E26"/>
<path d="M81.8342 54.2149H80.8619C81.4295 54.2149 81.93 53.9287 82.2274 53.4923C82.3109 53.3709 82.3778 53.2378 82.4252 53.0958C82.4825 52.929 82.5136 52.7497 82.5136 52.5634V51.8241C82.5136 50.9117 81.7743 50.1726 80.862 50.1726H80.6593V48.2266C80.6593 47.9093 80.4022 47.6515 80.0843 47.6515H79.4932C79.465 47.6515 79.4366 47.6535 79.4091 47.6576V50.1726H77.9657V48.2266C77.9657 47.9093 77.7077 47.6515 77.3907 47.6515H76.7996C76.7714 47.6515 76.743 47.6535 76.7155 47.6576V50.1726H73.9701C73.9418 50.1726 73.9135 50.1746 73.8859 50.1787V50.6152C73.8859 50.9331 74.1431 51.1903 74.461 51.1903H75.7298V57.4401H73.9701C73.9418 57.4401 73.9135 57.4421 73.8859 57.4462V57.8827C73.8859 58.2006 74.1431 58.4578 74.461 58.4578H76.7153V60.4038C76.7153 60.7211 76.9725 60.9789 77.2904 60.9789H77.8807C77.9096 60.9789 77.938 60.9769 77.9656 60.9727V58.4578H79.4089V60.4038C79.4089 60.7211 79.6661 60.9789 79.984 60.9789H80.5743C80.6032 60.9789 80.6316 60.9769 80.6592 60.9727V58.4578H82.3253C82.8645 58.4578 83.3556 58.2474 83.719 57.902C83.8121 57.6695 83.8631 57.4165 83.8631 57.1517V56.2435C83.8629 55.1232 82.9548 54.2149 81.8342 54.2149ZM77.9656 51.1904H80.5798C80.9646 51.1904 81.2771 51.5029 81.2771 51.8884V52.0036C81.2771 53.3682 80.6192 53.4235 80.0889 53.4235H77.9656V51.1904ZM82.268 55.7748C82.268 57.1189 81.9411 57.4401 80.835 57.4401H77.9656V54.6761H81.3252C81.8459 54.6761 82.2679 55.0981 82.2679 55.6187V55.7748H82.268Z" fill="#EA792E"/>
<path d="M61.6996 65.4456H56.7251C53.8571 65.4456 51.3262 66.8899 49.8211 69.0909C48.9037 70.4325 48.3668 72.0553 48.3668 73.803V78.433C48.3668 83.0487 52.1087 86.7904 56.7251 86.7904H61.6996V65.4456Z" fill="#F39E22"/>
<path d="M48.3658 74.981H57.1785V77.255H48.3658V74.981Z" fill="#EA792E"/>
<path d="M48.3658 74.981H57.1785V75.8736H48.3658V74.981Z" fill="#DD5E26"/>
<path d="M57.1785 78.683V80.9562H48.7542C48.6124 80.511 48.5083 80.0496 48.444 79.5748C48.4034 79.2825 48.3783 78.985 48.3702 78.683H57.1785Z" fill="#EA792E"/>
<path d="M57.1793 78.683V79.5748H48.445C48.4044 79.2825 48.3793 78.985 48.3712 78.683H57.1793Z" fill="#DD5E26"/>
<path d="M59.3202 82.3842V84.6582H51.1478C50.6863 84.2455 50.2714 83.7818 49.9118 83.2762C49.7088 82.9919 49.5235 82.6936 49.3573 82.3843H59.3202V82.3842Z" fill="#EA792E"/>
<path d="M59.3202 82.3842V83.276H49.9118C49.7088 82.9918 49.5235 82.6934 49.3573 82.3842H59.3202Z" fill="#DD5E26"/>
<path d="M60.7481 86.0862V86.7906H56.7244C55.5276 86.7906 54.3906 86.5396 53.3614 86.0862H60.7481Z" fill="#EA792E"/>
<path d="M60.7481 86.0862V86.7906H56.7244C55.5276 86.7906 54.3906 86.5396 53.3614 86.0862H60.7481Z" fill="#DD5E26"/>
<path d="M57.1784 71.2798V73.553H48.3695C48.3836 73.0812 48.4359 72.6205 48.5252 72.1716C48.5445 72.0742 48.565 71.9774 48.5886 71.8808L48.754 71.2798H57.1784Z" fill="#EA792E"/>
<path d="M57.1785 71.2798V72.1716H48.5254C48.5446 72.0742 48.5652 71.9774 48.5888 71.8808L48.7542 71.2798H57.1785Z" fill="#DD5E26"/>
<path d="M59.4007 67.5779V69.852H49.3566C49.4976 69.5892 49.6526 69.3352 49.8203 69.0908C49.9672 68.8766 50.1238 68.6693 50.2891 68.4699C50.5528 68.1516 50.84 67.8535 51.1478 67.578H59.4007V67.5779Z" fill="#EA792E"/>
<path d="M59.4007 67.5779V68.4697H50.2891C50.5528 68.1515 50.84 67.8533 51.1478 67.5779H59.4007Z" fill="#DD5E26"/>
<path d="M61.1195 65.7882V66.15H53.3612C54.3897 65.6966 55.5274 65.4456 56.7242 65.4456H58.745C59.5699 65.4456 60.3673 65.5653 61.1195 65.7882Z" fill="#EA792E"/>
<path d="M70.5484 73.8031V78.4332C70.5484 79.1371 70.4612 79.8204 70.297 80.4737C69.3867 84.1026 66.1026 86.7907 62.1901 86.7907H60.1689C55.5525 86.7907 51.8107 83.0489 51.8107 78.4333V73.8033C51.8107 72.0555 52.3476 70.4329 53.265 69.0913C54.7699 66.8903 57.301 65.4459 60.1689 65.4459H62.1901C66.8065 65.4456 70.5484 69.1874 70.5484 73.8031Z" fill="#F9C744"/>
<path d="M70.5484 73.8031V78.4332C70.5484 79.1371 70.4612 79.8204 70.297 80.4737C69.0633 80.8948 67.754 81.1213 66.3975 81.1213C59.9149 81.1213 54.5074 75.9552 53.2651 69.0913C54.7701 66.8903 57.3011 65.4459 60.1691 65.4459H62.1903C66.8065 65.4456 70.5484 69.1874 70.5484 73.8031Z" fill="#FAD98F"/>
<path d="M64.5428 69.4989C64.0406 69.816 63.8905 70.4801 64.2074 70.9823L66.094 73.9709C66.4111 74.4731 67.0752 74.6232 67.5774 74.3062C68.0796 73.9892 68.2296 73.3251 67.9127 72.8229L66.0261 69.8343C65.709 69.3321 65.045 69.1819 64.5428 69.4989Z" fill="#FAEFDC"/>
<path d="M62.1018 66.3794H60.2575C57.6405 66.3794 55.331 67.6974 53.9577 69.7059C53.1205 70.9301 52.6306 72.4107 52.6306 74.0057V78.2306C52.6306 82.4424 56.045 85.8568 60.2575 85.8568H62.1018C65.672 85.8568 68.6687 83.404 69.4993 80.0926C69.6492 79.4965 69.7285 78.8731 69.7285 78.2308V74.0058C69.7285 69.7938 66.3143 66.3794 62.1018 66.3794ZM69.4088 78.1514C69.4088 78.7696 69.3323 79.3698 69.188 79.9437C68.3885 83.1314 65.5038 85.4923 62.0673 85.4923H60.2919C56.237 85.4923 52.9503 82.2057 52.9503 78.1514V74.0847C52.9503 72.5495 53.422 71.1241 54.2278 69.9457C55.5498 68.0123 57.7729 66.7438 60.2919 66.7438H62.0673C66.1222 66.7438 69.4088 70.0304 69.4088 74.0847V78.1514Z" fill="#DD5E26"/>
<path d="M62.0672 66.7438H60.2919C57.7728 66.7438 55.5496 68.0125 54.2278 69.9457C53.422 71.1241 52.9503 72.5495 52.9503 74.0847V78.1514C52.9503 82.2056 56.2369 85.4922 60.2919 85.4922H62.0672C65.5038 85.4922 68.3884 83.1312 69.188 79.9437C69.3322 79.3699 69.4088 78.7698 69.4088 78.1514V74.0847C69.4088 70.0304 66.122 66.7438 62.0672 66.7438ZM68.6486 77.9636C68.6486 78.5247 68.5792 79.0694 68.4482 79.5904C67.7226 82.4836 65.1043 84.6265 61.9852 84.6265H60.3739C56.6936 84.6265 53.7105 81.6433 53.7105 77.9636V74.2724C53.7105 72.879 54.1385 71.5853 54.87 70.5158C56.0698 68.761 58.0875 67.6095 60.3739 67.6095H61.9852C65.6655 67.6095 68.6486 70.5927 68.6486 74.2724V77.9636Z" fill="#EA792E"/>
<path d="M64.7521 76.8063L64.5114 76.9472L61.8269 78.5147C61.4268 78.7488 60.9321 78.7488 60.5318 78.5147L57.6073 76.8063C57.0594 76.4865 56.8763 75.7823 57.1982 75.2366L60.3886 69.8298L60.6455 69.3942C60.8854 68.9881 61.4731 68.9881 61.7132 69.3942L65.1603 75.2364C65.4824 75.7821 65.2993 76.4865 64.7521 76.8063Z" fill="#DD5E26"/>
<path d="M65.2099 77.9979L64.786 78.6026L64.5815 78.8942L61.6873 83.0229C61.5072 83.279 61.1823 83.3484 60.9232 83.2319C60.8264 83.1884 60.7394 83.1182 60.6721 83.0229L57.778 78.8942L57.1496 77.9979C57.0271 77.8229 57.2301 77.6051 57.4133 77.7152L60.5186 79.5809C60.9253 79.8253 61.4342 79.8253 61.8409 79.5809L64.9462 77.7152C65.1295 77.6051 65.3325 77.8229 65.2099 77.9979Z" fill="#DD5E26"/>
<path d="M64.5114 76.9472L61.8269 78.5147C61.4268 78.7488 60.9321 78.7488 60.5318 78.5147L57.6073 76.8062C57.0594 76.4865 56.8763 75.7823 57.1982 75.2366L60.3886 69.8298C60.6124 69.8113 60.8448 69.9124 60.9748 70.1324L64.4219 75.9747C64.603 76.2813 64.6245 76.6371 64.5114 76.9472Z" fill="#EA792E"/>
<path d="M61.8409 80.5407C61.434 80.785 60.9255 80.785 60.5185 80.5407L57.778 78.8943L60.6721 83.0229C60.7394 83.1182 60.8265 83.1883 60.9231 83.2319L63.0468 80.2025C63.154 80.0496 62.9762 79.8588 62.816 79.955L61.8409 80.5407Z" fill="#EA792E"/>
<path d="M30.3327 42.375H25.3582C22.4903 42.375 19.9594 43.8193 18.4543 46.0204C17.5369 47.3619 17 48.9848 17 50.7324V55.3624C17 59.9781 20.7418 63.7198 25.3582 63.7198H30.3327V42.375Z" fill="#F39E22"/>
<path d="M17 51.9094H25.8126V54.1835H17V51.9094Z" fill="#EA792E"/>
<path d="M17 51.9094H25.8126V52.8021H17V51.9094Z" fill="#DD5E26"/>
<path d="M25.8124 55.6115V57.8847H17.3883C17.2465 57.4394 17.1424 56.9781 17.0782 56.5033C17.0375 56.2109 17.0125 55.9134 17.0043 55.6115H25.8124Z" fill="#EA792E"/>
<path d="M25.8124 55.6115V56.5033H17.0782C17.0375 56.2109 17.0125 55.9134 17.0043 55.6115H25.8124Z" fill="#DD5E26"/>
<path d="M27.9544 59.3126V61.5867H19.7819C19.3204 61.174 18.9055 60.7103 18.546 60.2046C18.3429 59.9204 18.1576 59.6221 17.9915 59.3128H27.9544V59.3126Z" fill="#EA792E"/>
<path d="M27.9544 59.3126V60.2045H18.546C18.3429 59.9202 18.1576 59.6219 17.9915 59.3126H27.9544Z" fill="#DD5E26"/>
<path d="M29.3823 63.0145V63.7189H25.3584C24.1616 63.7189 23.0245 63.4679 21.9954 63.0145H29.3823Z" fill="#EA792E"/>
<path d="M29.3823 63.0145V63.7189H25.3584C24.1616 63.7189 23.0245 63.4679 21.9954 63.0145H29.3823Z" fill="#DD5E26"/>
<path d="M25.8124 48.2083V50.4815H17.0036C17.0176 50.0097 17.07 49.549 17.1594 49.1001C17.1786 49.0026 17.1992 48.9059 17.2228 48.8092L17.3881 48.2083H25.8124Z" fill="#EA792E"/>
<path d="M25.8124 48.2083V49.1001H17.1594C17.1786 49.0026 17.1992 48.9059 17.2228 48.8092L17.3881 48.2083H25.8124Z" fill="#DD5E26"/>
<path d="M28.0349 44.5063V46.7804H17.9908C18.1317 46.5176 18.2868 46.2636 18.4545 46.0192C18.6014 45.8051 18.7579 45.5977 18.9233 45.3983C19.1869 45.0801 19.4741 44.7819 19.7819 44.5065H28.0349V44.5063Z" fill="#EA792E"/>
<path d="M28.0349 44.5063V45.3982H18.9233C19.1869 45.0799 19.4741 44.7818 19.7819 44.5063H28.0349Z" fill="#DD5E26"/>
<path d="M29.7536 42.7167V43.0784H21.9954C23.0239 42.625 24.1616 42.374 25.3584 42.374H27.3791C28.2039 42.3742 29.0012 42.4937 29.7536 42.7167Z" fill="#EA792E"/>
<path d="M39.1823 50.7316V55.3616C39.1823 56.0655 39.0952 56.7489 38.931 57.4021C38.0207 61.0311 34.7366 63.7192 30.8241 63.7192H28.8029C24.1865 63.7192 20.4446 59.9774 20.4446 55.3618V50.7318C20.4446 48.984 20.9815 47.3612 21.8989 46.0198C23.4039 43.8187 25.9349 42.3744 28.8029 42.3744H30.8241C35.4407 42.3742 39.1823 46.1161 39.1823 50.7316Z" fill="#F9C744"/>
<path d="M39.1823 50.7316V55.3616C39.1823 56.0655 39.0952 56.7488 38.931 57.4021C37.6973 57.8233 36.388 58.0497 35.0314 58.0497C28.5489 58.0497 23.1414 52.8837 21.8991 46.0198C23.404 43.8187 25.9351 42.3744 28.803 42.3744H30.8243C35.4407 42.3742 39.1823 46.116 39.1823 50.7316Z" fill="#FAD98F"/>
<path d="M33.1769 46.4275C32.6747 46.7445 32.5246 47.4086 32.8416 47.9108L34.7282 50.8994C35.0453 51.4016 35.7093 51.5517 36.2115 51.2348C36.7137 50.9177 36.8638 50.2536 36.5469 49.7514L34.6603 46.7628C34.3432 46.2606 33.6791 46.1105 33.1769 46.4275Z" fill="#FAEFDC"/>
<path d="M30.7358 43.3079H28.8915C26.2745 43.3079 23.965 44.6259 22.5917 46.6343C21.7545 47.8585 21.2646 49.3392 21.2646 50.9341V55.1589C21.2646 59.3707 24.6791 62.7851 28.8915 62.7851H30.7358C34.306 62.7851 37.3027 60.3323 38.1333 57.0209C38.2832 56.4248 38.3626 55.8014 38.3626 55.1591V50.9343C38.3627 46.7223 34.9483 43.3079 30.7358 43.3079ZM38.0428 55.08C38.0428 55.6984 37.9663 56.2984 37.822 56.8723C37.0225 60.06 34.1378 62.4209 30.7013 62.4209H28.9259C24.871 62.4209 21.5844 59.1343 21.5844 55.08V51.0133C21.5844 49.4782 22.056 48.0528 22.8619 46.8744C24.1838 44.941 26.407 43.6724 28.9259 43.6724H30.7013C34.7562 43.6724 38.0428 46.959 38.0428 51.0133V55.08Z" fill="#DD5E26"/>
<path d="M30.7013 43.6722H28.9259C26.4068 43.6722 24.1836 44.9409 22.8618 46.8742C22.056 48.0526 21.5843 49.478 21.5843 51.0131V55.0798C21.5843 59.1341 24.871 62.4207 28.9259 62.4207H30.7013C34.1378 62.4207 37.0225 60.0596 37.822 56.8721C37.9663 56.2984 38.0428 55.6982 38.0428 55.0798V51.0131C38.0428 46.9589 34.7562 43.6722 30.7013 43.6722ZM37.2826 54.8921C37.2826 55.4532 37.2132 55.9979 37.0822 56.5187C36.3566 59.4118 33.7383 61.5548 30.6192 61.5548H29.0079C25.3277 61.5548 22.3445 58.5716 22.3445 54.8919V51.2007C22.3445 49.8073 22.7725 48.5136 23.504 47.4441C24.7038 45.6893 26.7215 44.5378 29.0079 44.5378H30.6192C34.2995 44.5378 37.2826 47.521 37.2826 51.2007V54.8921Z" fill="#EA792E"/>
<path d="M35.4993 51.9443L34.8467 54.149C34.6466 54.8254 34.1859 55.4367 33.6055 55.8729C33.0504 56.2893 32.3873 56.5463 31.7399 56.5463H25.1812C24.9067 56.5463 24.7094 56.282 24.787 56.0192L24.8261 55.8877L24.9576 55.4433C25.0093 55.2691 25.1695 55.1494 25.3511 55.1494H31.2436C31.663 55.1494 32.0603 55.0321 32.4006 54.8239C32.8591 54.544 33.2128 54.1004 33.373 53.5592L33.9452 51.6241C34.0457 51.2844 33.7916 50.9441 33.438 50.9441H26.8389C26.565 50.9441 26.3679 50.6805 26.4455 50.417L26.4846 50.2855L26.6161 49.8418C26.6678 49.6676 26.828 49.5472 27.0096 49.5472H33.8117C35.1352 49.5469 35.8906 50.6205 35.4993 51.9443Z" fill="#DD5E26"/>
<path d="M34.761 52.6827L34.1084 54.8874C34.0043 55.2388 33.83 55.5725 33.6055 55.873C33.0504 56.2894 32.3873 56.5463 31.7399 56.5463H25.1812C24.9067 56.5463 24.7094 56.282 24.787 56.0192L24.8261 55.8878H30.5054C31.2924 55.8878 32.0048 55.4729 32.4006 54.8238C32.8591 54.5439 33.2128 54.1003 33.373 53.5591L33.9452 51.624C34.0457 51.2843 33.7916 50.944 33.438 50.944H26.8389C26.565 50.944 26.3679 50.6804 26.4455 50.4169L26.4846 50.2854H33.0735C34.3969 50.2852 35.1523 51.3589 34.761 52.6827Z" fill="#EA792E"/>
<path d="M29.3882 52.6766L29.1601 53.5286C29.1055 53.7338 28.9194 53.8764 28.7076 53.8764H24.2665C23.9534 53.8764 23.7283 53.5751 23.8169 53.2746L23.9499 52.8251L24.0696 52.422C24.1287 52.2234 24.3118 52.0868 24.5192 52.0868H28.9358C29.2435 52.0868 29.4679 52.3785 29.3882 52.6766Z" fill="#DD5E26"/>
<path d="M28.6498 53.4149L28.5264 53.8764H24.2665C23.9534 53.8764 23.7283 53.5751 23.8169 53.2746L23.9499 52.8251H28.1974C28.5052 52.8251 28.7297 53.1168 28.6498 53.4149Z" fill="#EA792E"/>
<defs>
<filter id="filter0_d" x="0" y="0" width="105" height="105" filterUnits="userSpaceOnUse" color-interpolation-filters="sRGB">
<feFlood flood-opacity="0" result="BackgroundImageFix"/>
<feColorMatrix in="SourceAlpha" type="matrix" values="0 0 0 0 0 0 0 0 0 0 0 0 0 0 0 0 0 0 127 0" result="hardAlpha"/>
<feOffset dy="3"/>
<feGaussianBlur stdDeviation="5"/>
<feComposite in2="hardAlpha" operator="out"/>
<feColorMatrix type="matrix" values="0 0 0 0 0.356863 0 0 0 0 0.380392 0 0 0 0 0.431373 0 0 0 0.25 0"/>
<feBlend mode="normal" in2="BackgroundImageFix" result="effect1_dropShadow"/>
<feBlend mode="normal" in="SourceGraphic" in2="effect1_dropShadow" result="shape"/>
</filter>
</defs>
</svg>
