<svg width="367" height="216" viewBox="0 0 367 216" fill="none" xmlns="http://www.w3.org/2000/svg">
<path d="M199 216C258.647 216 307 167.647 307 108C307 48.3532 258.647 0 199 0C139.353 0 91 48.3532 91 108C91 167.647 139.353 216 199 216Z" fill="url(#paint0_radial)"/>
<path d="M204.7 28.001H193.159C186.506 28.001 180.634 31.3589 177.142 36.476C175.014 39.5949 173.768 43.3673 173.768 47.4307V58.1945C173.768 68.9252 182.449 77.6242 193.159 77.6242H204.7V28.001H204.7Z" fill="#F39E22"/>
<path d="M173.768 50.1683H194.214V55.4552H173.768V50.1683Z" fill="#EA792E"/>
<path d="M173.768 50.1683H194.214V52.2434H173.768V50.1683Z" fill="#DD5E26"/>
<path d="M194.214 58.7744V64.0595H174.669C174.34 63.0243 174.099 61.9516 173.95 60.848C173.856 60.1684 173.798 59.4767 173.779 58.7744H194.214Z" fill="#EA792E"/>
<path d="M194.214 58.7744V60.848H173.95C173.856 60.1684 173.798 59.4767 173.779 58.7744H194.214Z" fill="#DD5E26"/>
<path d="M199.183 67.3791V72.6659H180.223C179.152 71.7065 178.189 70.6284 177.355 69.4527C176.884 68.792 176.454 68.0985 176.069 67.3791H199.183Z" fill="#EA792E"/>
<path d="M199.183 67.3791V69.4527H177.355C176.884 68.792 176.454 68.0985 176.069 67.3791H199.183Z" fill="#DD5E26"/>
<path d="M202.495 75.9856V77.6232H193.16C190.384 77.6232 187.746 77.0397 185.358 75.9856H202.495Z" fill="#EA792E"/>
<path d="M202.495 75.9856V77.6232H193.16C190.384 77.6232 187.746 77.0397 185.358 75.9856H202.495Z" fill="#DD5E26"/>
<path d="M194.214 41.5637V46.8487H173.777C173.81 45.752 173.931 44.6808 174.138 43.6373C174.183 43.4107 174.231 43.186 174.285 42.9609L174.669 41.5637H194.214Z" fill="#EA792E"/>
<path d="M194.214 41.5637V43.6373H174.139C174.183 43.4107 174.231 43.186 174.286 42.9609L174.67 41.5637H194.214Z" fill="#DD5E26"/>
<path d="M199.37 32.9572V38.2441H176.067C176.394 37.6329 176.754 37.0425 177.143 36.4743C177.484 35.9763 177.847 35.4941 178.23 35.0308C178.842 34.291 179.508 33.5975 180.223 32.9572H199.37Z" fill="#EA792E"/>
<path d="M199.37 32.9572V35.0308H178.231C178.842 34.291 179.509 33.5975 180.223 32.9572H199.37Z" fill="#DD5E26"/>
<path d="M203.357 28.7966V29.6376H185.358C187.744 28.5839 190.384 28 193.16 28H197.848C199.762 28.0004 201.611 28.2783 203.357 28.7966Z" fill="#EA792E"/>
<path d="M225.232 47.4297V58.1935C225.232 59.83 225.03 61.4184 224.649 62.9373C222.537 71.374 214.918 77.6231 205.841 77.6231H201.152C190.442 77.6231 181.761 68.9242 181.761 58.1935V47.4297C181.761 43.3666 183.006 39.5939 185.135 36.475C188.627 31.3579 194.498 28 201.152 28H205.841C216.551 28.0004 225.232 36.6993 225.232 47.4297Z" fill="#F9C744"/>
<path d="M225.232 47.4297V58.1935C225.232 59.83 225.03 61.4184 224.649 62.9373C221.787 63.9167 218.749 64.4426 215.602 64.4426C200.562 64.4426 188.017 52.4324 185.135 36.475C188.627 31.3579 194.498 28 201.152 28H205.841C216.551 28.0004 225.232 36.6993 225.232 47.4297Z" fill="#FAD98F"/>
<path d="M211.299 37.4235C210.134 38.1603 209.785 39.7043 210.521 40.872L214.898 47.8198C215.633 48.9871 217.174 49.3364 218.339 48.5992C219.504 47.8624 219.853 46.3184 219.117 45.1507L214.74 38.2029C214.005 37.0355 212.464 36.6866 211.299 37.4235Z" fill="#FAEFDC"/>
<path d="M205.636 30.1712H201.357C195.285 30.1712 189.927 33.2351 186.741 37.9046C184.799 40.7504 183.662 44.1931 183.662 47.9006V57.7225C183.662 67.5142 191.584 75.452 201.357 75.452H205.636C213.919 75.452 220.871 69.7495 222.798 62.0511C223.146 60.6652 223.331 59.2159 223.331 57.7225V47.9006C223.33 38.1089 215.408 30.1712 205.636 30.1712ZM222.588 57.539C222.588 58.9766 222.411 60.3716 222.076 61.7058C220.221 69.1165 213.528 74.6055 205.556 74.6055H201.437C192.029 74.6055 184.404 66.9646 184.404 57.5393V48.0842C184.404 44.5151 185.498 41.2013 187.368 38.4619C190.435 33.9672 195.592 31.0177 201.437 31.0177H205.556C214.963 31.0177 222.588 38.6586 222.588 48.0838V57.539Z" fill="#DD5E26"/>
<path d="M205.556 31.018H201.437C195.592 31.018 190.435 33.9672 187.368 38.4622C185.498 41.2016 184.404 44.5154 184.404 48.0846V57.539C184.404 66.9642 192.029 74.6051 201.437 74.6051H205.556C213.529 74.6051 220.221 69.1161 222.076 61.7054C222.411 60.3716 222.588 58.9762 222.588 57.5386V48.0842C222.588 38.6589 214.963 31.018 205.556 31.018ZM220.824 57.1022C220.824 58.4069 220.663 59.6734 220.359 60.8841C218.676 67.61 212.602 72.592 205.365 72.592H201.627C193.088 72.592 186.168 65.657 186.168 57.1022V48.5209C186.168 45.2818 187.161 42.2739 188.857 39.7877C191.641 35.7083 196.322 33.0312 201.626 33.0312H205.365C213.903 33.0312 220.824 39.9662 220.824 48.5209V57.1022H220.824Z" fill="#EA792E"/>
<path d="M210.403 51.7382H210.176L211.236 50.1701H211.234C211.701 49.5346 211.978 48.7493 211.978 47.8988V46.1803C211.978 44.0594 210.262 42.3406 208.146 42.3406H207.675V37.8161C207.675 37.0785 207.079 36.479 206.341 36.479H204.972C204.234 36.479 203.637 37.0785 203.637 37.8161V42.3402H201.426V37.8161C201.426 37.0785 200.83 36.479 200.092 36.479H198.723C197.985 36.479 197.388 37.0785 197.388 37.8161V42.3402H192.158C191.421 42.3402 190.824 42.9383 190.824 43.6773V45.0497C190.824 45.7888 191.421 46.3868 192.158 46.3868H195.102V59.2363H192.158C191.421 59.2363 190.824 59.8343 190.824 60.5734V61.9458C190.824 62.6848 191.421 63.2829 192.158 63.2829H197.388V67.807C197.388 68.5446 197.985 69.1441 198.723 69.1441H200.092C200.159 69.1441 200.225 69.1394 200.289 69.1296C200.934 69.0334 201.426 68.4772 201.426 67.807V63.2829H203.638V67.807C203.638 68.5446 204.234 69.1441 204.972 69.1441H206.341C206.409 69.1441 206.474 69.1394 206.538 69.1296C207.183 69.0334 207.675 68.4772 207.675 67.807V63.2829H210.403C211.654 63.2829 212.794 62.7941 213.637 61.9906C214.544 61.1347 215.11 59.9159 215.11 58.5661V56.4546C215.11 53.8496 213.002 51.7382 210.403 51.7382ZM201.426 46.3868H206.354C207.247 46.3868 207.972 47.1131 207.972 48.0091V48.2769C207.972 49.0064 207.492 49.6201 206.834 49.8256C206.682 49.8722 206.52 49.8977 206.354 49.8977H201.426V46.3868ZM210.27 57.0447C210.27 57.8799 209.805 58.6061 209.118 58.9766C208.81 59.1416 208.458 59.2363 208.083 59.2363H201.426V54.4907H208.084C209.291 54.4907 210.271 55.4719 210.271 56.6823V57.0447H210.27Z" fill="#DD5E26"/>
<path d="M209.264 53.4184H207.008C208.325 53.4184 209.487 52.7529 210.176 51.7382C210.37 51.4559 210.525 51.1466 210.635 50.8163C210.768 50.4284 210.84 50.0113 210.84 49.5786V47.8602C210.84 45.7392 209.125 44.0204 207.008 44.0204H206.538V39.4963C206.538 38.7587 205.941 38.1592 205.203 38.1592H203.832C203.767 38.1592 203.701 38.1639 203.637 38.1737V44.0204H200.289V39.4963C200.289 38.7587 199.691 38.1592 198.954 38.1592H197.583C197.518 38.1592 197.452 38.1639 197.388 38.1737V44.0204H191.019C190.954 44.0204 190.888 44.0252 190.824 44.035V45.0497C190.824 45.7888 191.421 46.3868 192.158 46.3868H195.102V60.9165H191.019C190.954 60.9165 190.888 60.9212 190.824 60.931V61.9458C190.824 62.6848 191.421 63.2829 192.158 63.2829H197.388V67.807C197.388 68.5446 197.985 69.1441 198.723 69.1441H200.092C200.159 69.1441 200.225 69.1394 200.289 69.1296V63.2829H203.637V67.807C203.637 68.5446 204.234 69.1441 204.972 69.1441H206.341C206.408 69.1441 206.474 69.1394 206.538 69.1296V63.2829H210.403C211.654 63.2829 212.793 62.7941 213.637 61.9906C213.852 61.4504 213.971 60.8618 213.971 60.2463V58.1348C213.971 55.5298 211.864 53.4184 209.264 53.4184ZM200.289 46.3868H206.354C207.247 46.3868 207.971 47.1131 207.971 48.0091V48.2769C207.971 51.4497 206.445 51.5779 205.215 51.5779H200.289V46.3868ZM210.27 57.0447C210.27 60.1694 209.512 60.9165 206.946 60.9165H200.289V54.491H208.083C209.291 54.491 210.27 55.4723 210.27 56.6826V57.0447Z" fill="#EA792E"/>
<path d="M147.891 51.6344L139.517 56.4787C134.69 59.2716 131.833 64.1724 131.439 69.3507C131.198 72.5068 131.872 75.767 133.57 78.7151L138.07 86.5246C142.555 94.3101 152.49 96.9778 160.26 92.482L168.634 87.6377L147.891 51.6344Z" fill="#F39E22"/>
<path d="M134.713 80.7003L149.554 72.1315L151.768 75.9651L136.927 84.5339L134.713 80.7003Z" fill="#EA792E"/>
<path d="M134.713 80.7003L149.554 72.1316L150.423 73.6363L135.582 82.2051L134.713 80.7003Z" fill="#DD5E26"/>
<path d="M153.145 78.3647L155.355 82.1994L141.175 90.403C140.503 89.79 139.88 89.1132 139.31 88.3749C138.958 87.9215 138.626 87.444 138.319 86.9424L153.145 78.3647Z" fill="#EA792E"/>
<path d="M153.145 78.3647L154.012 79.869L139.31 88.3746C138.958 87.9211 138.626 87.4436 138.319 86.942L153.145 78.3647Z" fill="#DD5E26"/>
<path d="M160.348 82.5217L162.558 86.3575L148.801 94.316C147.624 94.069 146.474 93.6913 145.378 93.1883C144.76 92.9064 144.158 92.584 143.578 92.2238L160.348 82.5217Z" fill="#EA792E"/>
<path d="M160.348 82.5217L161.215 84.026L145.378 93.1883C144.76 92.9064 144.158 92.584 143.578 92.2238L160.348 82.5217Z" fill="#DD5E26"/>
<path d="M166.349 87.3755L167.033 88.5636L160.26 92.482C158.246 93.6476 156.088 94.3313 153.915 94.5691L166.349 87.3755Z" fill="#EA792E"/>
<path d="M166.349 87.3755L167.033 88.5636L160.26 92.482C158.246 93.6476 156.088 94.3313 153.915 94.5691L166.349 87.3755Z" fill="#DD5E26"/>
<path d="M145.952 65.8773L148.161 69.712L133.333 78.2904C132.899 77.4811 132.539 76.6528 132.253 75.8085C132.191 75.6253 132.131 75.4421 132.077 75.256L131.771 74.0813L145.952 65.8773Z" fill="#EA792E"/>
<path d="M145.951 65.8773L146.818 67.3816L132.253 75.8082C132.19 75.625 132.131 75.4418 132.077 75.2556L131.771 74.081L145.951 65.8773Z" fill="#DD5E26"/>
<path d="M146.094 57.4687L148.304 61.3044L131.397 71.0855C131.379 70.5049 131.393 69.9254 131.438 69.35C131.477 68.8459 131.539 68.3432 131.624 67.846C131.758 67.0527 131.952 66.2696 132.202 65.5055L146.094 57.4687Z" fill="#EA792E"/>
<path d="M146.095 57.4687L146.962 58.9729L131.624 67.8464C131.759 67.0531 131.952 66.27 132.203 65.5058L146.095 57.4687Z" fill="#DD5E26"/>
<path d="M147.248 52.7762L147.599 53.3863L134.54 60.9416C135.831 59.1755 137.502 57.6439 139.517 56.4787L142.918 54.5107C144.307 53.7076 145.765 53.1328 147.248 52.7762Z" fill="#EA792E"/>
<path d="M170.908 57.1132L175.408 64.9227C176.092 66.1101 176.609 67.3474 176.968 68.6091C178.962 75.617 176.047 83.3489 169.461 87.1591L166.059 89.1275C158.288 93.6232 148.353 90.9556 143.868 83.1701L139.368 75.3605C137.67 72.4124 136.997 69.1525 137.237 65.9961C137.632 60.8178 140.488 55.917 145.316 53.1241L148.718 51.1558C156.488 46.6604 166.423 49.3277 170.908 57.1132Z" fill="#F9C744"/>
<path d="M170.908 57.1132L175.408 64.9227C176.092 66.1101 176.609 67.3474 176.968 68.6091C175.301 70.521 173.316 72.1779 171.033 73.4989C160.121 79.8118 145.999 76.364 137.237 65.9961C137.632 60.8178 140.488 55.917 145.316 53.1241L148.718 51.1558C156.488 46.6604 166.423 49.3277 170.908 57.1132Z" fill="#FAD98F"/>
<path d="M156.616 55.7018C156.079 56.7256 156.472 57.9921 157.493 58.5304L163.573 61.7342C164.595 62.2725 165.859 61.8792 166.396 60.8553C166.933 59.8314 166.541 58.565 165.519 58.0267L159.439 54.8229C158.417 54.2845 157.154 54.6779 156.616 55.7018Z" fill="#FAEFDC"/>
<path d="M149.476 52.817L146.371 54.6131C141.966 57.1616 139.359 61.6337 139 66.3589C138.78 69.2389 139.394 72.2139 140.944 74.9038L145.05 82.03C149.143 89.1344 158.209 91.5686 165.299 87.4662L168.404 85.6702C174.413 82.1935 177.074 75.1376 175.254 68.7431C174.927 67.5918 174.455 66.4627 173.831 65.3791L169.725 58.2529C165.632 51.1489 156.567 48.7147 149.476 52.817ZM173.216 65.5576C173.817 66.6004 174.271 67.6872 174.586 68.7956C176.338 74.9508 173.777 81.7426 167.992 85.0892L165.004 86.8182C158.178 90.7669 149.452 88.4238 145.512 81.5853L141.56 74.7257C140.068 72.1363 139.476 69.2727 139.688 66.5002C140.034 61.9516 142.543 57.6468 146.784 55.1937L149.772 53.4646C156.598 49.516 165.324 51.8591 169.264 58.6976L173.216 65.5576Z" fill="#DD5E26"/>
<path d="M149.772 53.465L146.783 55.194C142.543 57.6471 140.034 61.952 139.688 66.5006C139.476 69.2727 140.068 72.1363 141.56 74.726L145.512 81.5856C149.452 88.4241 158.178 90.7672 165.003 86.8186L167.992 85.0896C173.777 81.743 176.338 74.9511 174.586 68.796C174.271 67.6876 173.817 66.6007 173.215 65.5579L169.263 58.6983C165.324 51.8595 156.597 49.5164 149.772 53.465ZM171.754 65.9812C172.299 66.9278 172.712 67.9141 172.997 68.9202C174.587 74.5068 172.263 80.6711 167.013 83.7088L164.3 85.2779C158.105 88.8619 150.185 86.7352 146.609 80.5283L143.022 74.3024C141.668 71.952 141.131 69.3532 141.323 66.8371C141.637 62.7089 143.914 58.8018 147.763 56.5752L150.475 55.0061C156.67 51.422 164.59 53.5488 168.166 59.7557L171.754 65.9812Z" fill="#EA792E"/>
<path d="M164.07 67.8234L163.802 68.2959L160.807 73.5539C160.361 74.3385 159.528 74.82 158.627 74.8149L152.044 74.781C150.811 74.7752 149.818 73.7655 149.83 72.5315L149.945 60.3049L149.954 59.3201C149.964 58.4015 150.953 57.8292 151.752 58.2805L163.232 64.7781C164.304 65.3849 164.68 66.7511 164.07 67.8234Z" fill="#DD5E26"/>
<path d="M165.999 69.3875L165.873 70.82L165.812 71.511L164.953 81.2935C164.899 81.9011 164.42 82.3345 163.87 82.3902C163.665 82.411 163.45 82.3775 163.244 82.2824L154.36 78.1367L152.432 77.2367C152.055 77.0608 152.185 76.4959 152.601 76.5031L159.641 76.6259C160.563 76.6419 161.419 76.1466 161.867 75.3383L165.281 69.1671C165.482 68.8036 166.035 68.973 165.999 69.3875Z" fill="#DD5E26"/>
<path d="M163.802 68.2955L160.807 73.5536C160.361 74.3381 159.528 74.8196 158.627 74.8145L152.044 74.7807C150.811 74.7748 149.818 73.7652 149.83 72.5312L149.945 60.3046C150.304 60.0554 150.794 59.9997 151.226 60.2441L162.706 66.7417C163.309 67.083 163.691 67.6625 163.802 68.2955Z" fill="#EA792E"/>
<path d="M162.799 76.9574C162.351 77.766 161.495 78.2613 160.573 78.2449L154.359 78.1367L163.244 82.2824C163.449 82.3775 163.664 82.411 163.869 82.3903L164.5 75.2119C164.532 74.8495 164.047 74.7009 163.871 75.0189L162.799 76.9574Z" fill="#EA792E"/>
<path d="M258.658 56.0004L250.285 51.1561C245.457 48.3632 239.793 48.3344 235.121 50.5817C232.273 51.9512 229.792 54.1654 228.094 57.1135L223.594 64.923C219.109 72.7085 221.771 82.6638 229.541 87.1595L237.914 92.0038L258.658 56.0004Z" fill="#F39E22"/>
<path d="M224.736 62.9379L226.949 59.1043L241.79 67.6731L239.577 71.5067L224.736 62.9379Z" fill="#EA792E"/>
<path d="M226.078 60.6081L226.945 59.1025L241.779 67.6846L240.911 69.1901L226.078 60.6081Z" fill="#DD5E26"/>
<path d="M238.184 73.9265L235.975 77.7608L221.795 69.5568C221.989 68.6677 222.262 67.7881 222.615 66.9249C222.831 66.392 223.078 65.8657 223.358 65.3485L238.184 73.9265Z" fill="#EA792E"/>
<path d="M238.183 73.9265L237.317 75.4308L222.614 66.9249C222.83 66.392 223.077 65.8657 223.357 65.3485L238.183 73.9265Z" fill="#DD5E26"/>
<path d="M238.192 82.2551L235.982 86.0908L222.226 78.132C221.851 76.9865 221.603 75.8001 221.489 74.5971C221.424 73.92 221.401 73.2363 221.423 72.5526L238.192 82.2551Z" fill="#EA792E"/>
<path d="M238.192 82.2551L237.325 83.7594L221.488 74.5971C221.423 73.92 221.4 73.2363 221.422 72.5526L238.192 82.2551Z" fill="#DD5E26"/>
<path d="M236.998 89.8901L236.313 91.0783L229.54 87.1595C227.526 85.9939 225.856 84.4631 224.564 82.6962L236.998 89.8901Z" fill="#EA792E"/>
<path d="M236.998 89.8901L236.313 91.0783L229.54 87.1595C227.526 85.9939 225.856 84.4631 224.564 82.6962L236.998 89.8901Z" fill="#DD5E26"/>
<path d="M245.378 61.4392L243.169 65.2734L228.341 56.6947C228.823 55.9126 229.36 55.1864 229.946 54.5162C230.073 54.3705 230.202 54.2273 230.336 54.0875L231.198 53.2348L245.378 61.4392Z" fill="#EA792E"/>
<path d="M245.378 61.4392L244.511 62.9434L229.946 54.5165C230.073 54.3708 230.202 54.2277 230.336 54.0878L231.198 53.2352L245.378 61.4392Z" fill="#DD5E26"/>
<path d="M252.716 57.36L250.506 61.1958L233.6 51.4143C234.092 51.1083 234.6 50.8308 235.12 50.582C235.575 50.3638 236.04 50.1664 236.512 49.9912C237.265 49.7111 238.038 49.4878 238.824 49.3232L252.716 57.36Z" fill="#EA792E"/>
<path d="M252.716 57.3594L251.85 58.8637L236.512 49.9902C237.265 49.7101 238.039 49.4868 238.825 49.3222L252.716 57.3594Z" fill="#DD5E26"/>
<path d="M257.349 56.0143L256.997 56.6244L243.938 49.0691C246.11 49.3062 248.269 49.9906 250.284 51.1561L253.685 53.1241C255.074 53.9272 256.299 54.9055 257.349 56.0143Z" fill="#EA792E"/>
<path d="M265.431 78.7158L260.931 86.5254C260.247 87.7128 259.437 88.7803 258.526 89.7222C253.467 94.957 245.326 96.2927 238.741 92.4824L235.338 90.5141C227.568 86.0184 224.906 76.0631 229.392 68.2776L233.891 60.4681C235.59 57.52 238.07 55.3058 240.918 53.9363C245.591 51.6894 251.254 51.7178 256.082 54.5107L259.484 56.479C267.255 60.9748 269.917 70.9304 265.431 78.7158Z" fill="#F9C744"/>
<path d="M265.431 78.7158L260.931 86.5254C260.247 87.7128 259.437 88.7803 258.526 89.7222C256.04 89.2313 253.616 88.3378 251.332 87.0167C240.42 80.7035 236.339 66.7235 240.919 53.9363C245.591 51.6894 251.255 51.7178 256.082 54.5107L259.484 56.479C267.255 60.9748 269.917 70.9303 265.431 78.7158Z" fill="#FAD98F"/>
<path d="M259.505 65.6071C258.351 65.6526 257.453 66.6265 257.499 67.7826L257.77 74.6608C257.815 75.8165 258.787 76.7165 259.941 76.671C261.094 76.6255 261.992 75.6515 261.947 74.4954L261.676 67.6173C261.63 66.4616 260.658 65.5615 259.505 65.6071Z" fill="#FAEFDC"/>
<path d="M258.428 57.968L255.323 56.172C250.918 53.6234 245.75 53.5972 241.486 55.6479C238.887 56.8975 236.624 58.9179 235.074 61.6082L230.968 68.7344C226.875 75.8388 229.304 84.9231 236.394 89.0255L239.499 90.8215C245.508 94.2981 252.936 93.0794 257.553 88.3028C258.385 87.4432 259.124 86.4689 259.748 85.3857L263.854 78.2595C267.947 71.1547 265.519 62.0704 258.428 57.968ZM259.287 84.9406C258.686 85.9834 257.974 86.9213 257.173 87.7488C252.73 92.3469 245.579 93.5201 239.795 90.1732L236.807 88.4441C229.981 84.4951 227.643 75.7506 231.583 68.9125L235.535 62.0529C237.028 59.4636 239.207 57.5186 241.708 56.3155C245.812 54.3417 250.787 54.3668 255.027 56.82L258.016 58.549C264.841 62.498 267.179 71.2425 263.239 78.0806L259.287 84.9406Z" fill="#DD5E26"/>
<path d="M258.016 58.549L255.027 56.82C250.787 54.3669 245.812 54.3417 241.708 56.3155C239.207 57.5182 237.028 59.4632 235.535 62.0529L231.583 68.9125C227.643 75.751 229.981 84.4955 236.807 88.4442L239.795 90.1732C245.58 93.5198 252.73 92.3466 257.173 87.7488C257.974 86.9213 258.686 85.9838 259.287 84.9406L263.239 78.081C267.179 71.2425 264.841 62.498 258.016 58.549ZM258.19 83.8832C257.644 84.8299 256.998 85.6811 256.272 86.4318C252.238 90.6052 245.749 91.6698 240.498 88.6325L237.786 87.0634C231.591 83.4793 229.469 75.5427 233.045 69.3358L236.632 63.1099C237.986 60.7595 239.964 58.9944 242.235 57.9025C245.96 56.1112 250.475 56.1338 254.324 58.3603L257.036 59.9294C263.231 63.5135 265.353 71.4501 261.777 77.657L258.19 83.8832Z" fill="#EA792E"/>
<path d="M252.612 81.39C252.816 83.8548 250.943 86.0122 248.457 86.1262C248.414 86.1294 248.372 86.1313 248.329 86.1324C246.121 86.1742 244.2 84.5104 243.92 82.3141C243.682 80.458 244.632 78.7483 246.153 77.9102C246.567 77.6807 246.813 77.2327 246.804 76.7584L246.786 75.8027C246.77 74.9114 246.288 74.0944 245.517 73.6486L244.921 73.3037C244.477 73.0465 243.929 73.0852 243.506 73.3802C242.159 74.3225 240.334 74.4598 238.817 73.582C236.644 72.3246 235.955 69.4803 237.368 67.3532C237.794 66.7136 238.367 66.2186 239.018 65.8897C240.243 65.2694 241.736 65.233 243.016 65.9007C244.655 66.7541 245.514 68.4812 245.357 70.192C245.311 70.6961 245.564 71.1795 246 71.4319L246.965 71.9906C247.411 72.2485 247.92 72.3622 248.425 72.3232C248.627 72.3093 248.829 72.2704 249.025 72.2048L250.281 71.7907C250.744 71.6381 251.077 71.237 251.157 70.7566C251.383 69.4039 252.239 68.2052 253.491 67.5707C253.756 67.4359 254.04 67.3241 254.34 67.2447C256.764 66.5938 259.258 68.117 259.759 70.6218C260.194 72.7945 258.9 74.9865 256.79 75.653C256.422 75.7696 256.051 75.834 255.684 75.8508C254.32 75.9196 253.02 75.3387 252.153 74.3268C251.803 73.9178 251.252 73.7462 250.741 73.9141L250.698 73.9269C250.42 74.0194 250.165 74.1564 249.943 74.3294C249.318 74.8109 248.939 75.5689 248.954 76.3909L248.956 76.459C248.965 76.9839 249.284 77.4625 249.774 77.6435C251.315 78.2161 252.467 79.6403 252.612 81.39Z" fill="#DD5E26"/>
<path d="M250.698 73.9258L250.741 73.913C251.252 73.7451 251.803 73.9171 252.152 74.3257C253.02 75.3376 254.32 75.9185 255.684 75.8497C256.417 75.4807 257.053 74.8979 257.494 74.1327C258.701 72.0372 257.984 69.359 255.894 68.1498C255.138 67.712 254.305 67.5262 253.491 67.5688C252.239 68.2033 251.384 69.402 251.157 70.7548C251.077 71.2352 250.744 71.6362 250.281 71.7888L249.025 72.203C248.829 72.2685 248.626 72.3075 248.425 72.3213L247.377 72.6025C246.767 72.7664 246.116 72.6808 245.568 72.364L244.327 71.6457C243.866 71.3791 243.605 70.8779 243.614 70.3454C243.645 68.679 242.725 67.0498 241.072 66.2816C240.415 65.9742 239.708 65.85 239.018 65.8879C238.368 66.2172 237.794 66.7122 237.368 67.3514C235.955 69.4785 236.644 72.3228 238.817 73.5801C240.334 74.4579 242.16 74.3206 243.507 73.3784C243.929 73.083 244.477 73.0447 244.922 73.3019L245.518 73.6468C246.288 74.0926 246.77 74.9096 246.786 75.8009L246.804 76.7566C246.813 77.2308 246.568 77.6792 246.153 77.9083C244.632 78.7464 243.683 80.4561 243.921 82.3123C244.206 84.5483 246.191 86.2325 248.45 86.1269C248.452 86.1261 248.455 86.1254 248.458 86.1247C249.121 85.7954 249.706 85.295 250.137 84.6448C251.543 82.5195 250.854 79.6803 248.683 78.4244L248.671 78.4172C248.215 78.156 247.925 77.6825 247.926 77.1584C247.928 75.9254 248.683 74.8193 249.829 74.3712L249.942 74.3268C250.164 74.1553 250.42 74.0183 250.698 73.9258Z" fill="#EA792E"/>
<path d="M118.986 81.5827L114.171 89.94C111.395 94.7585 111.366 100.411 113.6 105.075C114.961 107.917 117.162 110.394 120.092 112.089L127.855 116.58C135.593 121.057 145.489 118.4 149.958 110.645L154.773 102.287L118.986 81.5827Z" fill="#F39E22"/>
<path d="M122.065 113.232L130.609 98.4344L134.423 100.637L125.88 115.435L122.065 113.232Z" fill="#EA792E"/>
<path d="M122.065 113.232L130.609 98.4345L132.106 99.2989L123.563 114.097L122.065 113.232Z" fill="#DD5E26"/>
<path d="M136.804 102.017L140.616 104.222L132.461 118.376C131.578 118.182 130.703 117.91 129.845 117.557C129.315 117.341 128.792 117.095 128.278 116.815L136.804 102.017Z" fill="#EA792E"/>
<path d="M136.804 102.017L138.3 102.882L129.845 117.557C129.315 117.341 128.792 117.095 128.278 116.815L136.804 102.017Z" fill="#DD5E26"/>
<path d="M145.083 102.009L148.896 104.215L140.985 117.946C139.846 118.32 138.667 118.568 137.471 118.681C136.798 118.747 136.119 118.769 135.439 118.748L145.083 102.009Z" fill="#EA792E"/>
<path d="M145.084 102.009L146.579 102.874L137.472 118.681C136.799 118.747 136.12 118.769 135.44 118.748L145.084 102.009Z" fill="#DD5E26"/>
<path d="M152.672 103.201L153.853 103.884L149.958 110.645C148.8 112.656 147.278 114.323 145.522 115.612L152.672 103.201Z" fill="#EA792E"/>
<path d="M152.672 103.201L153.853 103.884L149.958 110.645C148.8 112.656 147.278 114.323 145.522 115.612L152.672 103.201Z" fill="#DD5E26"/>
<path d="M124.392 94.8364L128.204 97.0415L119.677 111.841C118.899 111.36 118.178 110.825 117.511 110.239C117.367 110.113 117.224 109.984 117.085 109.85L116.237 108.99L124.392 94.8364Z" fill="#EA792E"/>
<path d="M124.392 94.8364L125.888 95.7015L117.511 110.239C117.367 110.113 117.224 109.984 117.085 109.85L116.237 108.99L124.392 94.8364Z" fill="#DD5E26"/>
<path d="M120.338 87.5117L124.15 89.7175L114.428 106.592C114.123 106.101 113.848 105.594 113.6 105.075C113.384 104.62 113.187 104.156 113.013 103.685C112.734 102.934 112.512 102.162 112.349 101.377L120.338 87.5117Z" fill="#EA792E"/>
<path d="M120.338 87.5117L121.833 88.3767L113.013 103.685C112.734 102.934 112.512 102.162 112.349 101.377L120.338 87.5117Z" fill="#DD5E26"/>
<path d="M119 82.8878L119.607 83.2385L112.097 96.273C112.332 94.1054 113.013 91.9502 114.171 89.9397L116.127 86.5447C116.926 85.1591 117.898 83.9357 119 82.8878Z" fill="#EA792E"/>
<path d="M141.565 74.8215L149.327 79.3125C150.508 79.9954 151.569 80.8044 152.505 81.7138C157.709 86.7632 159.036 94.8885 155.249 101.461L153.292 104.857C148.824 112.613 138.928 115.27 131.189 110.793L123.427 106.302C120.497 104.606 118.296 102.13 116.934 99.2877C114.701 94.6241 114.729 88.9708 117.506 84.1528L119.462 80.757C123.931 73.001 133.826 70.3439 141.565 74.8215Z" fill="#F9C744"/>
<path d="M141.565 74.8215L149.327 79.3125C150.508 79.9954 151.569 80.8044 152.505 81.7138C152.017 84.195 151.129 86.6146 149.816 88.8936C143.541 99.7849 129.645 103.859 116.934 99.2877C114.701 94.6241 114.729 88.9708 117.506 84.1528L119.462 80.757C123.931 73.001 133.826 70.3439 141.565 74.8215Z" fill="#FAD98F"/>
<path d="M128.535 80.7363C128.581 81.8876 129.549 82.784 130.698 82.7384L137.534 82.4678C138.683 82.4223 139.578 81.4523 139.532 80.301C139.487 79.1497 138.519 78.2533 137.37 78.2988L130.533 78.5694C129.384 78.615 128.49 79.5849 128.535 80.7363Z" fill="#FAEFDC"/>
<path d="M120.942 81.8111L119.157 84.9096C116.624 89.3063 116.598 94.4649 118.636 98.7206C119.878 101.315 121.886 103.574 124.56 105.121L131.643 109.219C138.705 113.305 147.735 110.88 151.813 103.803L153.598 100.704C157.054 94.7061 155.842 87.2921 151.094 82.6842C150.24 81.8541 149.271 81.1158 148.194 80.4929L141.111 76.395C134.05 72.3093 125.02 74.734 120.942 81.8111ZM147.752 80.9537C148.789 81.5536 149.721 82.2642 150.544 83.063C155.114 87.4982 156.28 94.635 152.954 100.409L151.235 103.392C147.31 110.204 138.618 112.538 131.82 108.605L125.002 104.66C122.428 103.171 120.495 100.996 119.299 98.4992C117.338 94.4026 117.362 89.4374 119.801 85.205L121.519 82.2223C125.445 75.4097 134.137 73.0761 140.934 77.0087L147.752 80.9537Z" fill="#DD5E26"/>
<path d="M121.519 82.2227L119.801 85.2054C117.362 89.4378 117.338 94.4034 119.299 98.4995C120.495 100.996 122.428 103.171 125.002 104.661L131.82 108.606C138.618 112.538 147.31 110.205 151.235 103.392L152.954 100.409C156.28 94.6354 155.114 87.4986 150.544 83.0633C149.721 82.2646 148.789 81.5536 147.752 80.9541L140.934 77.009C134.137 73.0764 125.445 75.4101 121.519 82.2227ZM146.702 82.0486C147.643 82.5931 148.489 83.2382 149.235 83.963C153.383 87.9885 154.442 94.466 151.423 99.7066L149.863 102.414C146.3 108.597 138.411 110.715 132.242 107.146L126.053 103.566C123.717 102.214 121.962 100.24 120.877 97.9739C119.096 94.2559 119.119 89.7492 121.333 85.9076L122.892 83.2003C126.455 77.0171 134.344 74.899 140.513 78.4682L146.702 82.0486Z" fill="#EA792E"/>
<path d="M147.236 88.7789L148.614 89.5755C149.345 89.9983 149.594 90.9362 149.172 91.6691L143.037 102.318C142.514 103.225 141.303 103.445 140.497 102.778L137.312 100.146L136.644 103.942C136.532 104.577 135.927 105.002 135.291 104.89L134.099 104.679C134.025 104.666 133.954 104.647 133.885 104.62C133.374 104.425 133.055 103.887 133.153 103.323L133.91 99.0259L134.169 97.5504L126.158 90.9308L125.93 90.7421C125.347 90.2599 125.197 89.4254 125.574 88.7698L127.157 86.0224C127.636 85.1908 128.745 84.9909 129.484 85.5999L135.41 90.4984L136.02 87.0269C136.132 86.3917 136.738 85.9666 137.373 86.0796L138.565 86.2893C139.199 86.4015 139.623 87.008 139.512 87.6454L139.359 88.517L138.552 93.0936L139.391 93.7875L140.312 94.5476C140.963 95.0859 141.94 94.9086 142.361 94.1775L145.148 89.3409C145.57 88.6084 146.505 88.356 147.236 88.7789Z" fill="#DD5E26"/>
<path d="M145.728 91.5088L142.941 96.3455C142.519 97.0768 141.543 97.2539 140.891 96.7155L139.37 95.4582L138.293 94.568L138.553 93.094L139.359 88.5174C139.291 88.4904 139.219 88.4711 139.145 88.4576L137.953 88.2478C137.318 88.1349 136.713 88.56 136.601 89.1952L135.99 92.6667L130.064 87.7681C129.325 87.1591 128.217 87.3591 127.737 88.1906L126.159 90.9311L134.17 97.5507L135.009 98.2442L134.749 99.7186L133.886 104.62C133.954 104.647 134.026 104.666 134.1 104.679L135.291 104.89C135.927 105.002 136.533 104.577 136.645 103.942L137.312 100.146L140.497 102.778C141.304 103.445 142.514 103.225 143.037 102.318L149.146 91.7157L147.817 90.9468C147.085 90.5239 146.15 90.7763 145.728 91.5088Z" fill="#EA792E"/>
<path d="M284.353 89.1169L279.538 80.7592C276.762 75.9408 271.891 73.0896 266.743 72.6962C263.606 72.4562 260.366 73.1282 257.436 74.8233L249.673 79.3143C241.934 83.7915 239.282 93.7074 243.751 101.463L248.566 109.821L284.353 89.1169Z" fill="#F39E22"/>
<path d="M251.644 78.1675L255.458 75.9651L264.002 90.7629L260.187 92.9653L251.644 78.1675Z" fill="#EA792E"/>
<path d="M253.959 76.8278L255.456 75.962L263.986 90.7675L262.49 91.6333L253.959 76.8278Z" fill="#DD5E26"/>
<path d="M257.784 94.3621L253.973 96.5672L245.818 82.4138C246.427 81.7436 247.1 81.1212 247.834 80.5529C248.285 80.2011 248.759 79.8704 249.258 79.5637L257.784 94.3621Z" fill="#EA792E"/>
<path d="M257.784 94.3615L256.289 95.2265L247.834 80.5519C248.285 80.2001 248.76 79.8694 249.258 79.5627L257.784 94.3615Z" fill="#DD5E26"/>
<path d="M253.652 101.55L249.84 103.756L241.929 90.0253C242.174 88.8495 242.55 87.7029 243.05 86.608C243.33 85.991 243.651 85.3904 244.009 84.8113L253.652 101.55Z" fill="#EA792E"/>
<path d="M253.652 101.55L252.156 102.415L243.049 86.608C243.329 85.991 243.65 85.3904 244.008 84.8113L253.652 101.55Z" fill="#DD5E26"/>
<path d="M248.827 107.54L247.646 108.223L243.751 101.463C242.593 99.4516 241.913 97.2979 241.677 95.1293L248.827 107.54Z" fill="#EA792E"/>
<path d="M248.827 107.54L247.646 108.223L243.751 101.463C242.593 99.4516 241.913 97.2979 241.677 95.1293L248.827 107.54Z" fill="#DD5E26"/>
<path d="M270.196 87.1803L266.385 89.3853L257.858 74.5854C258.663 74.1513 259.486 73.7925 260.325 73.5073C260.507 73.445 260.689 73.386 260.874 73.3317L262.042 73.0265L270.196 87.1803Z" fill="#EA792E"/>
<path d="M270.196 87.1803L268.701 88.0453L260.325 73.5073C260.507 73.445 260.689 73.386 260.874 73.3317L262.042 73.0265L270.196 87.1803Z" fill="#DD5E26"/>
<path d="M278.554 87.3234L274.742 89.5292L265.019 72.6543C265.596 72.6364 266.172 72.6503 266.744 72.6951C267.245 72.7344 267.745 72.796 268.239 72.8805C269.028 73.0145 269.806 73.2079 270.566 73.4581L278.554 87.3234Z" fill="#EA792E"/>
<path d="M278.554 87.3234L277.059 88.1885L268.239 72.8801C269.028 73.0141 269.806 73.2075 270.565 73.4578L278.554 87.3234Z" fill="#DD5E26"/>
<path d="M283.219 88.4751L282.612 88.8259L275.102 75.7914C276.858 77.0797 278.38 78.7476 279.538 80.7585L281.495 84.1535C282.293 85.5391 282.864 86.9949 283.219 88.4751Z" fill="#EA792E"/>
<path d="M278.907 112.091L271.145 116.582C269.964 117.264 268.734 117.781 267.48 118.139C260.515 120.129 252.829 117.219 249.042 110.646L247.085 107.25C242.616 99.4939 245.268 89.578 253.007 85.1009L260.77 80.6099C263.7 78.9147 266.94 78.2424 270.078 78.4828C275.225 78.8761 280.096 81.7273 282.873 86.5458L284.829 89.9415C289.298 97.6975 286.646 107.613 278.907 112.091Z" fill="#F9C744"/>
<path d="M278.907 112.091L271.145 116.582C269.964 117.264 268.734 117.781 267.48 118.139C265.58 116.474 263.933 114.494 262.62 112.215C256.345 101.324 259.772 87.2276 270.078 78.4827C275.225 78.8761 280.096 81.7273 282.873 86.5458L284.829 89.9415C289.298 97.6975 286.646 107.613 278.907 112.091Z" fill="#FAD98F"/>
<path d="M280.31 97.8257C279.293 97.2896 278.034 97.6815 277.499 98.7013L274.314 104.77C273.779 105.79 274.17 107.051 275.188 107.587C276.206 108.123 277.465 107.731 278 106.712L281.184 100.643C281.719 99.6236 281.328 98.3622 280.31 97.8257Z" fill="#FAEFDC"/>
<path d="M283.178 90.6988L281.393 87.6002C278.86 83.2036 274.414 80.6015 269.717 80.2423C266.855 80.0234 263.898 80.6364 261.224 82.1833L254.14 86.2813C247.079 90.3666 244.659 99.4152 248.737 106.493L250.522 109.591C253.978 115.589 260.991 118.245 267.347 116.429C268.492 116.102 269.614 115.631 270.691 115.008L277.774 110.91C284.836 106.824 287.256 97.7762 283.178 90.6988ZM270.514 114.394C269.477 114.994 268.397 115.447 267.295 115.762C261.177 117.51 254.426 114.954 251.1 109.18L249.381 106.197C245.456 99.3846 247.785 90.6747 254.583 86.7421L261.401 82.7974C263.975 81.3085 266.821 80.718 269.577 80.9289C274.098 81.2746 278.377 83.7791 280.815 88.0114L282.534 90.9941C286.459 97.8068 284.13 106.517 277.332 110.449L270.514 114.394Z" fill="#DD5E26"/>
<path d="M277.693 104.169C278.454 103.728 278.871 102.865 278.742 101.993C278.612 101.12 277.963 100.415 277.106 100.217L275.068 99.7416L267.18 97.9026L267.161 97.8985L270.131 88.1109C270.388 87.2677 270.103 86.3523 269.414 85.8034C268.863 85.3649 268.142 85.2312 267.486 85.4221C267.322 85.4691 267.162 85.5372 267.009 85.6253L254.905 92.6281L253.567 90.3046C253.442 90.0876 253.283 89.9022 253.104 89.7481C251.984 90.8342 251.089 92.0989 250.439 93.4695L252.264 96.6372C252.377 96.8343 252.518 97.0062 252.677 97.1519C253.349 97.7641 254.364 97.9025 255.192 97.4236L264.449 92.0683L262.393 98.8466C262.306 99.1315 262.28 99.4276 262.313 99.7164C262.346 100.006 262.438 100.289 262.586 100.546C262.883 101.06 263.379 101.43 263.959 101.565L268.807 102.694L270.845 103.169L261.588 108.525C260.563 109.118 260.211 110.433 260.803 111.46L262.627 114.625C264.135 114.746 265.674 114.604 267.171 114.176C267.173 114.176 267.175 114.175 267.177 114.175C267.134 113.942 267.052 113.712 266.927 113.495L265.588 111.172L277.693 104.169Z" fill="#DD5E26"/>
<path d="M282.534 90.9941L280.815 88.0114C278.377 83.779 274.098 81.2746 269.577 80.9289C266.821 80.718 263.975 81.3085 261.401 82.7974L254.583 86.7421C252.462 87.9688 250.777 89.6607 249.58 91.6144V91.6148C246.941 95.9244 246.68 101.51 249.381 106.197L251.1 109.18C254.426 114.954 261.177 117.51 267.295 115.762C268.397 115.447 269.477 114.994 270.514 114.394L277.332 110.449C284.13 106.517 286.459 97.8068 282.534 90.9941ZM252.472 108.202L250.912 105.495C248.707 101.667 248.677 97.1796 250.438 93.4691L252.264 96.6369C252.377 96.8339 252.518 97.0058 252.677 97.1515C252.84 97.1053 253.001 97.0371 253.154 96.9483L265.058 90.0617L264.449 92.0675L262.393 98.8459C262.306 99.1308 262.281 99.4269 262.313 99.7157C262.346 100.006 262.438 100.288 262.586 100.545C262.883 101.06 263.379 101.429 263.959 101.564L268.807 102.694L270.845 103.169L261.588 108.524C260.563 109.117 260.212 110.432 260.803 111.459L262.627 114.624C258.54 114.297 254.677 112.03 252.472 108.202ZM270.093 112.935C269.152 113.479 268.172 113.891 267.172 114.176C266.698 114.312 266.22 114.416 265.74 114.496L263.551 110.697L275.654 103.695C276.416 103.254 276.833 102.391 276.704 101.518C276.574 100.645 275.925 99.9404 275.068 99.7419L267.18 97.9029L267.161 97.8989L265.123 97.424L268.093 87.6363C268.336 86.8393 268.095 85.9779 267.486 85.4225C267.322 85.4695 267.161 85.5376 267.009 85.6257L253.582 93.3941L252.107 90.8335C253.065 89.6618 254.246 88.6401 255.633 87.8377L261.822 84.2573C264.158 82.9056 266.741 82.3698 269.242 82.5614C273.346 82.875 277.23 85.1482 279.443 88.9898L281.002 91.6971C284.565 97.8803 282.451 105.786 276.282 109.355L270.093 112.935Z" fill="#EA792E"/>
<path d="M259.576 133.38C259.474 133.5 259.362 133.62 259.238 133.744L259.107 133.875C255.614 137.386 252.586 140.759 249.867 143.982C230.21 167.268 226.59 182.566 178.687 182.566C163.705 182.566 155.33 183.513 149.881 186.284H149.878C148.184 185.21 146.526 184.085 144.913 182.912C137.563 177.568 131.024 171.172 125.517 163.946C123.816 161.721 122.221 159.419 120.727 157.04L127.117 150.637C159.815 117.871 170.669 124.642 176.543 124.642C179.596 124.642 184.201 121.83 187.916 119.127C191.347 116.639 194.019 114.243 194.019 114.243C195.876 112.382 197.599 111.391 199.107 111.059C203.211 110.163 205.763 114.134 205.312 118.683C205.076 121.061 204.025 123.596 201.943 125.683C199.009 128.623 177.128 141.608 177.128 141.608C177.128 141.608 185.288 141.608 193.75 141.608H209.928C221.909 141.608 232.126 114.844 243.521 114.844C249.479 114.844 252.321 116.348 253.677 117.787C254.916 119.102 254.916 120.355 254.916 120.355L253.604 121.932L253.6 121.935L253.564 121.983L249.119 127.33H249.144H249.151C249.177 127.333 249.217 127.337 249.271 127.337H249.275H249.279C250.256 127.403 255.472 127.807 258.413 129.235C260.281 130.142 261.23 131.467 259.576 133.38Z" fill="#C17E62"/>
<path d="M258.057 132.702C257.831 132.607 257.606 132.516 257.384 132.429H257.381C257.377 132.429 257.377 132.425 257.373 132.425C257.366 132.422 257.362 132.418 257.355 132.418C256.977 132.269 256.61 132.13 256.257 131.999H256.254C256.21 131.981 256.163 131.966 256.119 131.948C256.119 131.948 256.116 131.945 256.112 131.945C255.051 131.562 254.142 131.267 253.56 131.07C250.62 130.069 246.749 130.484 246.749 130.484L249.159 127.479L249.166 127.468L249.271 127.337L253.233 122.398L253.27 122.351L253.364 122.23L253.404 122.179L253.564 121.983C253.259 121.742 252.881 121.429 252.434 121.134C252.43 121.13 252.426 121.13 252.423 121.127C252.419 121.123 252.415 121.123 252.412 121.12C252.099 120.916 251.754 120.719 251.372 120.562C250.823 120.329 250.198 120.173 249.5 120.173C238.105 120.173 225.972 149.246 213.992 149.246C206.046 149.246 181.192 149.246 181.192 149.246C181.192 149.246 187.469 145.519 193.75 141.608C185.288 141.608 177.128 141.608 177.128 141.608C177.128 141.608 199.009 128.623 201.943 125.683C204.025 123.596 205.076 121.061 205.312 118.683C203.386 118.246 200.892 119.065 198.082 121.881C198.082 121.881 186.48 132.28 180.606 132.28C174.729 132.28 163.879 125.509 131.18 158.271L125.517 163.946C131.024 171.172 137.563 177.568 144.913 182.912C146.526 184.085 148.184 185.21 149.878 186.284H149.881C155.33 183.513 163.705 182.566 178.687 182.566C226.59 182.566 230.21 167.268 249.867 143.982C252.586 140.759 255.614 137.386 259.107 133.875L259.238 133.744C259.362 133.62 259.474 133.5 259.576 133.38C259.071 133.139 258.562 132.913 258.057 132.702Z" fill="#A26D5A"/>
<path d="M258.413 129.235C257.973 129.781 257.515 130.36 257.046 130.972C256.784 131.311 256.523 131.649 256.265 131.985V131.988C256.261 131.992 256.257 131.996 256.257 131.999H256.254C253.426 135.663 250.743 139.051 248.203 142.169C221.505 174.909 209.514 178.705 187.592 178.705C163.894 178.705 151.942 179.55 144.913 182.912C146.526 184.085 148.184 185.21 149.878 186.284H149.881C155.33 183.513 163.705 182.566 178.687 182.566C226.59 182.566 230.21 167.268 249.867 143.982C252.586 140.759 255.614 137.386 259.107 133.875L259.238 133.744C259.362 133.62 259.474 133.5 259.576 133.38C261.23 131.467 260.281 130.142 258.413 129.235Z" fill="#9175A7"/>
<path d="M254.916 120.355L253.608 121.935L253.604 121.939L253.404 122.179L253.364 122.23L249.144 127.33L244.913 132.444L231.308 148.889C225.096 155.117 218.866 162.234 209.06 162.234C209.06 162.234 225.285 154.862 232.242 144.922C235.016 140.959 239.185 135.601 243.198 130.593C243.198 130.59 243.198 130.59 243.201 130.586L243.416 130.32C246.229 126.812 248.948 123.494 251.034 120.97L251.234 120.726H251.238C251.281 120.671 251.325 120.617 251.372 120.562C252.296 119.444 253.081 118.501 253.677 117.787C254.916 119.102 254.916 120.355 254.916 120.355Z" fill="#9175A7"/>
<path d="M198.599 117.477L195.934 120.147C194.001 122.085 190.864 122.085 188.93 120.147L188.018 119.233C187.985 119.2 187.949 119.164 187.916 119.127C191.347 116.639 194.019 114.243 194.019 114.243C195.876 112.382 197.599 111.391 199.107 111.059C200.514 112.997 200.343 115.729 198.599 117.477Z" fill="#EEA47D"/>
<path d="M253.76 122.08C251.826 120.142 248.691 120.142 246.758 122.08L244.094 124.749C242.16 126.687 241.707 130.13 244.921 132.447L253.76 122.08Z" fill="#D48D77"/>
<path d="M253.608 121.942C252.92 121.306 252.097 120.898 251.235 120.725L243.203 130.586C243.612 131.343 243.995 131.88 244.921 132.447L253.608 121.942Z" fill="#C2AACF"/>
<path d="M259.107 133.875C255.614 137.386 252.586 140.759 249.867 143.982C249.831 143.946 249.795 143.913 249.758 143.877L248.846 142.963C248.781 142.897 248.715 142.828 248.657 142.759C248.548 142.638 248.446 142.515 248.352 142.387C248.301 142.314 248.25 142.241 248.203 142.169C246.945 140.245 247.16 137.634 248.846 135.944L251.51 133.274C252.761 132.021 254.509 131.58 256.112 131.945C256.116 131.945 256.119 131.948 256.119 131.948C256.167 131.959 256.217 131.97 256.265 131.985C256.646 132.083 257.021 132.229 257.373 132.425C257.377 132.425 257.377 132.429 257.381 132.429C257.384 132.425 257.384 132.425 257.384 132.429C257.41 132.44 257.431 132.454 257.453 132.469C257.62 132.56 257.78 132.666 257.937 132.779C257.973 132.808 258.006 132.833 258.042 132.859C258.1 132.906 258.158 132.95 258.213 132.997C258.249 133.03 258.289 133.063 258.326 133.099C258.387 133.154 258.449 133.212 258.511 133.274L259.107 133.875Z" fill="#D48D77"/>
<path d="M259.107 133.875C255.614 137.386 252.586 140.759 249.867 143.982C249.831 143.946 249.795 143.913 249.758 143.877L248.846 142.963C248.781 142.897 248.715 142.828 248.657 142.759C248.548 142.638 248.446 142.515 248.352 142.387C248.301 142.314 248.25 142.241 248.203 142.169C250.743 139.051 253.426 135.663 256.254 131.999H256.257C256.257 131.996 256.261 131.992 256.265 131.988C256.639 132.087 257.006 132.229 257.355 132.418C257.362 132.418 257.366 132.422 257.373 132.425C257.377 132.425 257.377 132.429 257.381 132.429C257.406 132.444 257.431 132.454 257.453 132.469C257.62 132.564 257.78 132.666 257.937 132.779C257.973 132.808 258.006 132.833 258.042 132.859C258.1 132.906 258.158 132.95 258.213 132.997C258.249 133.03 258.289 133.063 258.326 133.099C258.387 133.154 258.449 133.212 258.511 133.274L259.107 133.875Z" fill="#C2AACF"/>
<path d="M317.5 109C344.838 109 367 86.8381 367 59.5C367 32.1619 344.838 10 317.5 10C290.162 10 268 32.1619 268 59.5C268 86.8381 290.162 109 317.5 109Z" fill="url(#paint1_radial)"/>
<path d="M52.5 201C90.8838 201 122 169.884 122 131.5C122 93.1162 90.8838 62 52.5 62C14.1162 62 -17 93.1162 -17 131.5C-17 169.884 14.1162 201 52.5 201Z" fill="url(#paint2_radial)"/>
<defs>
<radialGradient id="paint0_radial" cx="0" cy="0" r="1" gradientUnits="userSpaceOnUse" gradientTransform="translate(199 108) rotate(90) scale(108)">
<stop stop-color="#0052FF" stop-opacity="0.65"/>
<stop offset="1" stop-color="#0052FF"/>
</radialGradient>
<radialGradient id="paint1_radial" cx="0" cy="0" r="1" gradientUnits="userSpaceOnUse" gradientTransform="translate(317.5 59.5) rotate(90) scale(49.5)">
<stop stop-color="#0052FF" stop-opacity="0.45"/>
<stop offset="1" stop-color="#0052FF" stop-opacity="0.65"/>
</radialGradient>
<radialGradient id="paint2_radial" cx="0" cy="0" r="1" gradientUnits="userSpaceOnUse" gradientTransform="translate(52.5 131.5) rotate(90) scale(69.5)">
<stop stop-color="#0052FF" stop-opacity="0.65"/>
<stop offset="1" stop-color="#0052FF" stop-opacity="0.8"/>
</radialGradient>
</defs>
</svg>
